<svg width="481" height="49" viewBox="0 0 481 49" fill="none" xmlns="http://www.w3.org/2000/svg">
<path d="M0.27625 48V3.2H14.1003V48H0.27625ZM6.86825 32.256V21.376H30.1003V32.256H6.86825ZM6.86825 14.976V3.2H32.4683V14.976H6.86825ZM55.7153 48.64C52.0033 48.64 48.6966 47.872 45.7953 46.336C42.8939 44.8 40.6113 42.7093 38.9473 40.064C37.2833 37.376 36.4513 34.304 36.4513 30.848C36.4513 27.392 37.2833 24.3413 38.9473 21.696C40.6113 19.008 42.8939 16.896 45.7953 15.36C48.6966 13.824 52.0033 13.056 55.7153 13.056C59.4273 13.056 62.7126 13.824 65.5713 15.36C68.4726 16.896 70.7339 19.008 72.3553 21.696C74.0193 24.3413 74.8513 27.392 74.8513 30.848C74.8513 34.304 74.0193 37.376 72.3553 40.064C70.7339 42.7093 68.4726 44.8 65.5713 46.336C62.7126 47.872 59.4273 48.64 55.7153 48.64ZM55.7153 37.76C56.8673 37.76 57.8913 37.4613 58.7873 36.864C59.7259 36.2667 60.4513 35.456 60.9633 34.432C61.4753 33.3653 61.7313 32.1707 61.7313 30.848C61.7313 29.4827 61.4753 28.288 60.9633 27.264C60.4513 26.1973 59.7259 25.3653 58.7873 24.768C57.8913 24.1707 56.8673 23.872 55.7153 23.872C54.5206 23.872 53.4539 24.1707 52.5153 24.768C51.6193 25.3653 50.8939 26.1973 50.3393 27.264C49.8273 28.288 49.5713 29.4827 49.5713 30.848C49.5713 32.1707 49.8273 33.3653 50.3393 34.432C50.8939 35.456 51.6193 36.2667 52.5153 36.864C53.4539 37.4613 54.5206 37.76 55.7153 37.76ZM81.2613 48V13.76H93.2933L94.0613 25.152L91.1813 23.36C91.7359 21.3973 92.6106 19.648 93.8053 18.112C94.9999 16.5333 96.4293 15.296 98.0933 14.4C99.7999 13.504 101.613 13.056 103.533 13.056C104.301 13.056 105.027 13.12 105.709 13.248C106.392 13.3333 107.053 13.4613 107.693 13.632L104.109 28.032C103.683 27.7333 103 27.456 102.061 27.2C101.165 26.944 100.184 26.816 99.1173 26.816C98.3493 26.816 97.6453 26.944 97.0053 27.2C96.4079 27.4133 95.8959 27.7547 95.4693 28.224C95.0853 28.6933 94.7866 29.248 94.5733 29.888C94.3599 30.528 94.2533 31.2747 94.2533 32.128V48H81.2613ZM135.839 48V3.2H155.999C159.071 3.2 161.801 3.86133 164.191 5.184C166.58 6.50667 168.457 8.32 169.823 10.624C171.188 12.928 171.871 15.5733 171.871 18.56C171.871 21.6747 171.188 24.448 169.823 26.88C168.457 29.312 166.58 31.232 164.191 32.64C161.801 34.0053 159.071 34.688 155.999 34.688H149.663V48H135.839ZM149.407 22.912H153.439C154.249 22.912 154.975 22.7627 155.615 22.464C156.255 22.1227 156.745 21.6533 157.087 21.056C157.471 20.4587 157.663 19.712 157.663 18.816C157.663 17.92 157.471 17.1947 157.087 16.64C156.745 16.0853 156.255 15.68 155.615 15.424C154.975 15.1253 154.249 14.976 153.439 14.976H149.407V22.912ZM178.886 48V0.639999H191.878V48H178.886ZM212.423 48.576C209.564 48.576 207.025 47.8293 204.807 46.336C202.588 44.8 200.839 42.7093 199.559 40.064C198.279 37.376 197.639 34.304 197.639 30.848C197.639 27.3493 198.257 24.2773 199.495 21.632C200.775 18.944 202.524 16.8533 204.743 15.36C207.004 13.824 209.607 13.056 212.551 13.056C214.087 13.056 215.495 13.2693 216.775 13.696C218.055 14.1227 219.185 14.72 220.167 15.488C221.148 16.256 222.001 17.152 222.727 18.176C223.452 19.1573 224.071 20.224 224.583 21.376L221.959 21.312V13.76H234.695V48H221.639V39.616L224.519 39.872C224.092 41.1093 223.495 42.2613 222.727 43.328C222.001 44.3947 221.127 45.312 220.103 46.08C219.079 46.848 217.927 47.4667 216.647 47.936C215.367 48.3627 213.959 48.576 212.423 48.576ZM216.135 38.016C217.372 38.016 218.417 37.7387 219.271 37.184C220.167 36.6293 220.828 35.8187 221.255 34.752C221.724 33.6853 221.959 32.384 221.959 30.848C221.959 29.312 221.724 28.0107 221.255 26.944C220.828 25.8347 220.167 25.0027 219.271 24.448C218.417 23.8933 217.372 23.616 216.135 23.616C214.897 23.616 213.852 23.8933 212.999 24.448C212.145 25.0027 211.484 25.8347 211.015 26.944C210.588 28.0107 210.375 29.312 210.375 30.848C210.375 32.384 210.588 33.6853 211.015 34.752C211.484 35.8187 212.145 36.6293 212.999 37.184C213.852 37.7387 214.897 38.016 216.135 38.016ZM259.06 48.64C255.604 48.64 252.511 47.872 249.78 46.336C247.092 44.8 244.959 42.7093 243.38 40.064C241.844 37.376 241.076 34.304 241.076 30.848C241.076 27.392 241.844 24.3413 243.38 21.696C244.959 19.008 247.092 16.896 249.78 15.36C252.511 13.824 255.604 13.056 259.06 13.056C262.132 13.056 264.97 13.5253 267.572 14.464C270.175 15.4027 272.287 16.768 273.908 18.56L266.868 26.88C266.399 26.368 265.844 25.8987 265.204 25.472C264.564 25.0453 263.839 24.7253 263.028 24.512C262.218 24.256 261.279 24.128 260.212 24.128C258.932 24.128 257.802 24.4053 256.82 24.96C255.882 25.5147 255.156 26.304 254.644 27.328C254.132 28.3093 253.876 29.4613 253.876 30.784C253.876 32.064 254.111 33.216 254.58 34.24C255.092 35.2213 255.818 36.0107 256.756 36.608C257.738 37.2053 258.89 37.504 260.212 37.504C261.279 37.504 262.218 37.3973 263.028 37.184C263.839 36.9707 264.564 36.672 265.204 36.288C265.844 35.8613 266.399 35.3707 266.868 34.816L273.844 43.2C272.266 44.9493 270.175 46.2933 267.572 47.232C264.97 48.1707 262.132 48.64 259.06 48.64ZM295.587 48.64C291.619 48.64 288.206 47.872 285.347 46.336C282.489 44.8 280.291 42.7093 278.755 40.064C277.219 37.376 276.451 34.304 276.451 30.848C276.451 28.288 276.878 25.92 277.731 23.744C278.585 21.568 279.779 19.6907 281.315 18.112C282.894 16.4907 284.729 15.2533 286.819 14.4C288.953 13.504 291.278 13.056 293.795 13.056C296.313 13.056 298.595 13.504 300.643 14.4C302.734 15.2533 304.526 16.4907 306.019 18.112C307.513 19.6907 308.643 21.568 309.411 23.744C310.222 25.92 310.585 28.288 310.499 30.848L310.435 33.536H283.619L282.147 27.456H300.131L298.915 28.736V27.584C298.915 26.7733 298.702 26.0693 298.275 25.472C297.891 24.832 297.337 24.3413 296.611 24C295.886 23.6587 295.033 23.488 294.051 23.488C292.814 23.488 291.769 23.744 290.915 24.256C290.062 24.768 289.401 25.4933 288.931 26.432C288.505 27.3707 288.291 28.5013 288.291 29.824C288.291 31.36 288.611 32.704 289.251 33.856C289.934 35.008 290.915 35.904 292.195 36.544C293.518 37.184 295.139 37.504 297.059 37.504C298.339 37.504 299.427 37.3547 300.323 37.056C301.262 36.7147 302.243 36.1813 303.267 35.456L309.219 43.84C307.641 45.0773 306.083 46.0373 304.547 46.72C303.054 47.4027 301.561 47.8933 300.067 48.192C298.617 48.4907 297.123 48.64 295.587 48.64ZM316.511 48V13.76H328.543L329.055 19.136L327.583 18.624C328.223 17.5147 328.949 16.6187 329.759 15.936C330.613 15.2107 331.509 14.6347 332.447 14.208C333.386 13.7813 334.346 13.4827 335.327 13.312C336.309 13.1413 337.247 13.056 338.143 13.056C339.637 13.056 341.045 13.2693 342.367 13.696C343.69 14.08 344.885 14.784 345.951 15.808C347.018 16.832 347.914 18.304 348.639 20.224L346.655 20.16L347.167 19.264C347.807 18.1547 348.575 17.216 349.471 16.448C350.367 15.68 351.349 15.04 352.415 14.528C353.482 14.016 354.57 13.6533 355.679 13.44C356.789 13.184 357.855 13.056 358.879 13.056C361.695 13.056 364.063 13.5893 365.983 14.656C367.903 15.7227 369.333 17.3013 370.271 19.392C371.253 21.44 371.743 23.936 371.743 26.88V48H358.751V27.968C358.751 27.0293 358.602 26.24 358.303 25.6C358.005 24.96 357.557 24.4693 356.959 24.128C356.405 23.7867 355.722 23.616 354.911 23.616C354.271 23.616 353.674 23.7227 353.119 23.936C352.607 24.1067 352.159 24.384 351.775 24.768C351.434 25.152 351.157 25.5787 350.943 26.048C350.73 26.5173 350.623 27.0507 350.623 27.648V48H337.631V27.968C337.631 27.0293 337.482 26.24 337.183 25.6C336.885 24.96 336.437 24.4693 335.839 24.128C335.285 23.7867 334.602 23.616 333.791 23.616C333.151 23.616 332.554 23.7227 331.999 23.936C331.487 24.1067 331.039 24.384 330.655 24.768C330.314 25.152 330.037 25.5787 329.823 26.048C329.61 26.5173 329.503 27.0507 329.503 27.648V48H316.511ZM396.65 48.64C392.682 48.64 389.268 47.872 386.41 46.336C383.551 44.8 381.354 42.7093 379.818 40.064C378.282 37.376 377.514 34.304 377.514 30.848C377.514 28.288 377.94 25.92 378.794 23.744C379.647 21.568 380.842 19.6907 382.378 18.112C383.956 16.4907 385.791 15.2533 387.882 14.4C390.015 13.504 392.34 13.056 394.858 13.056C397.375 13.056 399.658 13.504 401.706 14.4C403.796 15.2533 405.588 16.4907 407.082 18.112C408.575 19.6907 409.706 21.568 410.474 23.744C411.284 25.92 411.647 28.288 411.562 30.848L411.498 33.536H384.682L383.21 27.456H401.194L399.978 28.736V27.584C399.978 26.7733 399.764 26.0693 399.338 25.472C398.954 24.832 398.399 24.3413 397.674 24C396.948 23.6587 396.095 23.488 395.114 23.488C393.876 23.488 392.831 23.744 391.978 24.256C391.124 24.768 390.463 25.4933 389.994 26.432C389.567 27.3707 389.354 28.5013 389.354 29.824C389.354 31.36 389.674 32.704 390.314 33.856C390.996 35.008 391.978 35.904 393.258 36.544C394.58 37.184 396.202 37.504 398.122 37.504C399.402 37.504 400.49 37.3547 401.386 37.056C402.324 36.7147 403.306 36.1813 404.33 35.456L410.282 43.84C408.703 45.0773 407.146 46.0373 405.61 46.72C404.116 47.4027 402.623 47.8933 401.13 48.192C399.679 48.4907 398.186 48.64 396.65 48.64ZM417.574 48V13.76H429.606L430.246 20.672L427.494 21.44C427.963 19.8187 428.795 18.3893 429.99 17.152C431.227 15.872 432.699 14.8693 434.406 14.144C436.112 13.4187 437.926 13.056 439.846 13.056C442.406 13.056 444.582 13.5893 446.374 14.656C448.166 15.7227 449.51 17.3013 450.406 19.392C451.344 21.44 451.814 23.936 451.814 26.88V48H438.822V27.968C438.822 27.0293 438.672 26.24 438.374 25.6C438.075 24.96 437.627 24.4693 437.03 24.128C436.432 23.7867 435.728 23.616 434.918 23.616C434.278 23.616 433.68 23.7227 433.126 23.936C432.614 24.1067 432.166 24.384 431.782 24.768C431.398 25.152 431.099 25.5787 430.886 26.048C430.672 26.5173 430.566 27.0507 430.566 27.648V48H424.102C422.48 48 421.115 48 420.006 48C418.939 48 418.128 48 417.574 48ZM461.928 48V5.12H474.92V48H461.928ZM456.616 24.64V13.76H480.552V24.64H456.616Z" fill="url(#paint0_linear_225_74)"/>
<defs>
<linearGradient id="paint0_linear_225_74" x1="-11" y1="24" x2="488" y2="24" gradientUnits="userSpaceOnUse">
<stop offset="0.13" stop-color="#5A5A5A"/>
<stop offset="1" stop-color="#4E8FFF"/>
</linearGradient>
</defs>
</svg>
