<svg width="282" height="100" viewBox="0 0 282 100" fill="none" xmlns="http://www.w3.org/2000/svg">
<path d="M11.3749 42V20.238H2.26523V12.4779H29.8473V20.238H20.4846V42H11.3749ZM40.7813 42.4217C38.1665 42.4217 35.9172 41.9157 34.0334 40.9035C32.1496 39.8913 30.7016 38.5136 29.6894 36.7704C28.6773 34.9991 28.1712 32.9747 28.1712 30.6973C28.1712 29.0103 28.4523 27.4498 29.0146 26.0159C29.577 24.582 30.3642 23.3449 31.3764 22.3046C32.4167 21.2362 33.6257 20.4208 35.0034 19.8585C36.4092 19.268 37.9416 18.9728 39.6004 18.9728C41.2593 18.9728 42.7635 19.268 44.1131 19.8585C45.4908 20.4208 46.6716 21.2362 47.6557 22.3046C48.6398 23.3449 49.3849 24.582 49.891 26.0159C50.4252 27.4498 50.6642 29.0103 50.6079 30.6973L50.5658 32.4686H32.8947L31.9247 28.462H43.7757L42.9744 29.3055V28.5464C42.9744 28.0122 42.8338 27.5483 42.5526 27.1546C42.2996 26.7329 41.9341 26.4095 41.4561 26.1846C40.9781 25.9597 40.4158 25.8472 39.7691 25.8472C38.9537 25.8472 38.2649 26.0159 37.7026 26.3533C37.1402 26.6907 36.7044 27.1687 36.3952 27.7872C36.114 28.4058 35.9734 29.1509 35.9734 30.0225C35.9734 31.0347 36.1843 31.9203 36.606 32.6795C37.0559 33.4386 37.7026 34.029 38.5461 34.4508C39.4177 34.8725 40.4861 35.0834 41.7513 35.0834C42.5948 35.0834 43.3118 34.985 43.9022 34.7882C44.5208 34.5633 45.1674 34.2118 45.8422 33.7338L49.7644 39.2587C48.7241 40.074 47.6979 40.7067 46.6857 41.1565C45.7016 41.6064 44.7176 41.9297 43.7335 42.1265C42.7776 42.3233 41.7935 42.4217 40.7813 42.4217ZM64.7337 42.4217C62.4563 42.4217 60.4179 41.9157 58.6184 40.9035C56.8471 39.8913 55.4413 38.5136 54.401 36.7704C53.3888 34.9991 52.8827 32.9747 52.8827 30.6973C52.8827 28.4199 53.3888 26.4095 54.401 24.6663C55.4413 22.895 56.8471 21.5033 58.6184 20.4911C60.4179 19.4789 62.4563 18.9728 64.7337 18.9728C66.7581 18.9728 68.6278 19.2821 70.3429 19.9006C72.058 20.5192 73.4497 21.4189 74.5182 22.5998L69.879 28.0825C69.5697 27.7451 69.2042 27.4358 68.7824 27.1546C68.3607 26.8735 67.8827 26.6626 67.3485 26.522C66.8143 26.3533 66.1957 26.269 65.4928 26.269C64.6493 26.269 63.9043 26.4517 63.2576 26.8172C62.639 27.1827 62.1611 27.7029 61.8237 28.3777C61.4863 29.0244 61.3176 29.7835 61.3176 30.6551C61.3176 31.4986 61.4722 32.2577 61.7815 32.9325C62.1189 33.5792 62.5969 34.0993 63.2154 34.493C63.8621 34.8866 64.6212 35.0834 65.4928 35.0834C66.1957 35.0834 66.8143 35.0131 67.3485 34.8725C67.8827 34.732 68.3607 34.5351 68.7824 34.2821C69.2042 34.0009 69.5697 33.6776 69.879 33.3121L74.476 38.8369C73.4357 39.9897 72.058 40.8754 70.3429 41.4939C68.6278 42.1125 66.7581 42.4217 64.7337 42.4217ZM77.8809 42V10.791H86.2314V23.9915L84.4179 24.4976C84.7272 23.4292 85.2755 22.4873 86.0627 21.672C86.8781 20.8285 87.8481 20.1677 88.9728 19.6898C90.0974 19.2118 91.2923 18.9728 92.5576 18.9728C94.2446 18.9728 95.6785 19.3243 96.8594 20.0272C98.0402 20.7301 98.9259 21.7704 99.5163 23.1481C100.135 24.4976 100.444 26.1424 100.444 28.0825V42H91.8828V28.7994C91.8828 28.1809 91.7844 27.6607 91.5876 27.239C91.3908 26.8172 91.0955 26.4939 90.7019 26.269C90.3083 26.044 89.8444 25.9316 89.3102 25.9316C88.8884 25.9316 88.4948 26.0019 88.1293 26.1424C87.7919 26.2549 87.4967 26.4377 87.2436 26.6907C86.9906 26.9438 86.7938 27.2249 86.6532 27.5342C86.5126 27.8435 86.4423 28.1949 86.4423 28.5886V42H82.1827C81.1143 42 80.2145 42 79.4835 42C78.7806 42 78.2464 42 77.8809 42ZM115.713 42C114.138 42 112.662 41.7188 111.285 41.1565C109.907 40.5942 108.684 39.8069 107.615 38.7947C106.575 37.7826 105.746 36.6298 105.127 35.3365C104.537 34.015 104.242 32.6092 104.242 31.119C104.242 29.91 104.354 28.8135 104.579 27.8294C104.804 26.8172 105.113 25.8613 105.507 24.9616C105.9 24.0618 106.364 23.1621 106.899 22.2624C107.433 21.3346 108.009 20.3505 108.628 19.3102L112.972 12.0562H121.238L121.406 12.4779L114.869 22.4311C114.223 23.4152 113.675 24.3289 113.225 25.1724C112.803 25.9878 112.395 26.8453 112.002 27.7451C111.608 28.6448 111.116 29.7413 110.525 31.0347L108.923 29.2212C109.007 28.1246 109.359 27.0984 109.977 26.1424C110.596 25.1865 111.355 24.3571 112.255 23.6542C113.182 22.9231 114.138 22.3608 115.123 21.9672C116.135 21.5735 117.077 21.3767 117.948 21.3767C119.635 21.3767 121.182 21.8266 122.587 22.7263C124.021 23.5979 125.16 24.7647 126.003 26.2268C126.847 27.6888 127.269 29.2915 127.269 31.0347C127.269 33.1153 126.763 34.985 125.75 36.6439C124.738 38.3027 123.361 39.6101 121.617 40.5661C119.874 41.522 117.906 42 115.713 42ZM115.882 34.8304C116.613 34.8304 117.259 34.6898 117.822 34.4086C118.384 34.0993 118.82 33.6776 119.129 33.1434C119.466 32.5811 119.635 31.9484 119.635 31.2455C119.635 30.627 119.466 30.0506 119.129 29.5164C118.792 28.9822 118.342 28.5464 117.779 28.209C117.217 27.8716 116.585 27.7029 115.882 27.7029C115.151 27.7029 114.504 27.8716 113.942 28.209C113.379 28.5183 112.929 28.94 112.592 29.4742C112.283 30.0084 112.128 30.5989 112.128 31.2455C112.128 31.9484 112.283 32.567 112.592 33.1012C112.929 33.6354 113.379 34.0572 113.942 34.3664C114.504 34.6757 115.151 34.8304 115.882 34.8304ZM141.806 42.4217C139.585 42.4217 137.617 42.1828 135.902 41.7048C134.215 41.1987 132.725 40.4958 131.431 39.5961C130.166 38.6963 129.028 37.642 128.015 36.433L133.287 30.5286C134.693 32.328 136.155 33.523 137.673 34.1134C139.22 34.6757 140.668 34.9569 142.017 34.9569C142.551 34.9569 143.029 34.9147 143.451 34.8304C143.873 34.7179 144.196 34.5492 144.421 34.3243C144.646 34.0993 144.759 33.7901 144.759 33.3964C144.759 33.0309 144.632 32.7216 144.379 32.4686C144.154 32.2155 143.845 32.0047 143.451 31.836C143.058 31.6392 142.622 31.4845 142.144 31.3721C141.694 31.2315 141.244 31.119 140.794 31.0347C140.372 30.9503 139.993 30.866 139.655 30.7816C137.968 30.388 136.492 29.91 135.227 29.3477C133.962 28.7854 132.908 28.1106 132.064 27.3233C131.221 26.5361 130.588 25.6363 130.166 24.6242C129.773 23.612 129.576 22.4733 129.576 21.208C129.576 19.7741 129.899 18.4667 130.546 17.2858C131.221 16.1049 132.106 15.0928 133.203 14.2493C134.327 13.4058 135.593 12.7591 136.998 12.3092C138.432 11.8594 139.909 11.6345 141.427 11.6345C143.648 11.6345 145.504 11.8453 146.994 12.2671C148.484 12.6607 149.735 13.2371 150.747 13.9962C151.76 14.7554 152.631 15.641 153.362 16.6532L148.048 21.7563C147.43 21.1659 146.783 20.6879 146.108 20.3224C145.433 19.9288 144.73 19.6476 143.999 19.4789C143.297 19.2821 142.594 19.1837 141.891 19.1837C141.244 19.1837 140.696 19.2399 140.246 19.3524C139.796 19.4367 139.445 19.5914 139.192 19.8163C138.938 20.0131 138.812 20.2943 138.812 20.6598C138.812 21.0253 138.967 21.3346 139.276 21.5876C139.613 21.8125 140.021 22.0094 140.499 22.178C141.005 22.3467 141.497 22.4873 141.975 22.5998C142.481 22.6841 142.903 22.7544 143.24 22.8107C144.787 23.0918 146.207 23.4855 147.5 23.9915C148.793 24.4695 149.918 25.0881 150.874 25.8472C151.858 26.5782 152.603 27.5061 153.109 28.6307C153.643 29.7273 153.91 31.0347 153.91 32.5529C153.91 34.7179 153.362 36.5314 152.266 37.9934C151.197 39.4555 149.749 40.5661 147.922 41.3252C146.094 42.0562 144.056 42.4217 141.806 42.4217ZM168.993 42.4217C166.378 42.4217 164.129 41.9157 162.245 40.9035C160.361 39.8913 158.913 38.5136 157.901 36.7704C156.889 34.9991 156.383 32.9747 156.383 30.6973C156.383 29.0103 156.664 27.4498 157.226 26.0159C157.789 24.582 158.576 23.3449 159.588 22.3046C160.628 21.2362 161.837 20.4208 163.215 19.8585C164.621 19.268 166.153 18.9728 167.812 18.9728C169.471 18.9728 170.975 19.268 172.325 19.8585C173.702 20.4208 174.883 21.2362 175.867 22.3046C176.852 23.3449 177.597 24.582 178.103 26.0159C178.637 27.4498 178.876 29.0103 178.82 30.6973L178.777 32.4686H161.106L160.136 28.462H171.987L171.186 29.3055V28.5464C171.186 28.0122 171.045 27.5483 170.764 27.1546C170.511 26.7329 170.146 26.4095 169.668 26.1846C169.19 25.9597 168.627 25.8472 167.981 25.8472C167.165 25.8472 166.477 26.0159 165.914 26.3533C165.352 26.6907 164.916 27.1687 164.607 27.7872C164.326 28.4058 164.185 29.1509 164.185 30.0225C164.185 31.0347 164.396 31.9203 164.818 32.6795C165.268 33.4386 165.914 34.029 166.758 34.4508C167.629 34.8725 168.698 35.0834 169.963 35.0834C170.807 35.0834 171.523 34.985 172.114 34.7882C172.732 34.5633 173.379 34.2118 174.054 33.7338L177.976 39.2587C176.936 40.074 175.91 40.7067 174.897 41.1565C173.913 41.6064 172.929 41.9297 171.945 42.1265C170.989 42.3233 170.005 42.4217 168.993 42.4217ZM182.781 42V19.4367H190.71L191.132 23.9915L189.318 24.4976C189.628 23.4292 190.176 22.4873 190.963 21.672C191.779 20.8285 192.749 20.1677 193.873 19.6898C194.998 19.2118 196.193 18.9728 197.458 18.9728C199.145 18.9728 200.579 19.3243 201.76 20.0272C202.941 20.7301 203.826 21.7704 204.417 23.1481C205.035 24.4976 205.345 26.1424 205.345 28.0825V42H196.783V28.7994C196.783 28.1809 196.685 27.6607 196.488 27.239C196.291 26.8172 195.996 26.4939 195.602 26.269C195.209 26.044 194.745 25.9316 194.211 25.9316C193.789 25.9316 193.395 26.0019 193.03 26.1424C192.692 26.2549 192.397 26.4377 192.144 26.6907C191.891 26.9438 191.694 27.2249 191.554 27.5342C191.413 27.8435 191.343 28.1949 191.343 28.5886V42H187.083C186.015 42 185.115 42 184.384 42C183.681 42 183.147 42 182.781 42ZM218.547 42.4217C216.101 42.4217 213.964 42.0562 212.136 41.3252C210.337 40.5661 208.931 39.6242 207.919 38.4995L212.896 34.2399C213.795 35.0272 214.821 35.6176 215.974 36.0112C217.155 36.3768 218.139 36.5595 218.926 36.5595C219.208 36.5595 219.447 36.5454 219.643 36.5173C219.868 36.4611 220.037 36.3908 220.15 36.3065C220.29 36.194 220.388 36.0815 220.445 35.9691C220.529 35.8566 220.571 35.716 220.571 35.5473C220.571 35.1256 220.346 34.8163 219.896 34.6195C219.643 34.507 219.222 34.3664 218.631 34.1977C218.069 34.029 217.324 33.8322 216.396 33.6073C215.299 33.3261 214.287 32.9747 213.359 32.5529C212.46 32.1312 211.687 31.6392 211.04 31.0768C210.365 30.4583 209.831 29.7554 209.437 28.9681C209.072 28.1809 208.889 27.2952 208.889 26.3111C208.889 25.1584 209.156 24.1321 209.69 23.2324C210.224 22.3327 210.955 21.5735 211.883 20.955C212.811 20.3083 213.851 19.8163 215.004 19.4789C216.157 19.1415 217.338 18.9728 218.547 18.9728C219.925 18.9728 221.204 19.1134 222.385 19.3945C223.594 19.6476 224.718 20.0272 225.759 20.5332C226.827 21.0112 227.797 21.5876 228.669 22.2624L224.325 27.1124C223.847 26.7188 223.284 26.3393 222.638 25.9737C222.019 25.6082 221.359 25.313 220.656 25.0881C219.981 24.835 219.348 24.7085 218.758 24.7085C218.448 24.7085 218.181 24.7366 217.956 24.7929C217.76 24.821 217.591 24.8913 217.45 25.0037C217.31 25.0881 217.197 25.2005 217.113 25.3411C217.057 25.4536 217.029 25.5942 217.029 25.7629C217.029 25.9878 217.099 26.1987 217.239 26.3955C217.38 26.5923 217.605 26.761 217.914 26.9016C218.167 27.014 218.589 27.1687 219.179 27.3655C219.798 27.5623 220.698 27.8294 221.879 28.1668C223.144 28.5323 224.254 28.9541 225.21 29.432C226.195 29.91 226.982 30.4723 227.572 31.119C227.966 31.5689 228.275 32.075 228.5 32.6373C228.725 33.1996 228.837 33.8041 228.837 34.4508C228.837 35.9972 228.388 37.3749 227.488 38.5839C226.616 39.7648 225.407 40.7067 223.861 41.4096C222.314 42.0843 220.543 42.4217 218.547 42.4217ZM243.128 42.4217C240.513 42.4217 238.264 41.9157 236.38 40.9035C234.496 39.8913 233.048 38.5136 232.036 36.7704C231.024 34.9991 230.517 32.9747 230.517 30.6973C230.517 29.0103 230.799 27.4498 231.361 26.0159C231.923 24.582 232.711 23.3449 233.723 22.3046C234.763 21.2362 235.972 20.4208 237.35 19.8585C238.756 19.268 240.288 18.9728 241.947 18.9728C243.606 18.9728 245.11 19.268 246.459 19.8585C247.837 20.4208 249.018 21.2362 250.002 22.3046C250.986 23.3449 251.731 24.582 252.237 26.0159C252.771 27.4498 253.01 29.0103 252.954 30.6973L252.912 32.4686H235.241L234.271 28.462H246.122L245.321 29.3055V28.5464C245.321 28.0122 245.18 27.5483 244.899 27.1546C244.646 26.7329 244.28 26.4095 243.802 26.1846C243.324 25.9597 242.762 25.8472 242.115 25.8472C241.3 25.8472 240.611 26.0159 240.049 26.3533C239.487 26.6907 239.051 27.1687 238.741 27.7872C238.46 28.4058 238.32 29.1509 238.32 30.0225C238.32 31.0347 238.531 31.9203 238.952 32.6795C239.402 33.4386 240.049 34.029 240.892 34.4508C241.764 34.8725 242.832 35.0834 244.098 35.0834C244.941 35.0834 245.658 34.985 246.249 34.7882C246.867 34.5633 247.514 34.2118 248.189 33.7338L252.111 39.2587C251.07 40.074 250.044 40.7067 249.032 41.1565C248.048 41.6064 247.064 41.9297 246.08 42.1265C245.124 42.3233 244.14 42.4217 243.128 42.4217Z" fill="#5F9AFF"/>
<path d="M0.156513 89L12.0075 59.4779H19.1772L30.9438 89H21.9185L17.195 76.0946C16.8857 75.223 16.6186 74.478 16.3936 73.8594C16.1687 73.2408 15.9719 72.6645 15.8032 72.1303C15.6345 71.5679 15.4658 70.9775 15.2971 70.3589C15.1284 69.7123 14.9597 68.9531 14.791 68.0815H16.2249C16.0562 68.9531 15.8876 69.7123 15.7189 70.3589C15.5502 70.9775 15.3674 71.5679 15.1706 72.1303C15.0019 72.6645 14.791 73.2408 14.538 73.8594C14.313 74.478 14.0459 75.223 13.7367 76.0946L9.01313 89H0.156513ZM6.06092 84.6139L8.71791 78.4142H22.4246L24.8285 84.6139H6.06092ZM40.1757 89.4639C38.32 89.4639 36.6612 88.9719 35.1991 87.9878C33.7652 86.9756 32.6265 85.5979 31.783 83.8547C30.9676 82.0834 30.5599 80.045 30.5599 77.7394C30.5599 75.462 30.9817 73.4377 31.8252 71.6663C32.6687 69.895 33.8214 68.5033 35.2835 67.4911C36.7736 66.4789 38.4747 65.9728 40.3866 65.9728C41.3425 65.9728 42.2563 66.1134 43.1279 66.3945C43.9995 66.6476 44.7868 67.0272 45.4897 67.5332C46.1926 68.0112 46.783 68.5876 47.261 69.2624C47.7671 69.9091 48.1045 70.612 48.2732 71.3711L46.3753 71.9616V57.791H54.9789V89H47.261L46.5862 84.0234L48.3154 84.403C48.1748 85.134 47.8655 85.8088 47.3875 86.4274C46.9095 87.0459 46.305 87.5801 45.574 88.03C44.8711 88.4798 44.0557 88.8313 43.1279 89.0843C42.2001 89.3374 41.216 89.4639 40.1757 89.4639ZM42.7483 82.5051C43.5637 82.5051 44.2526 82.3224 44.8149 81.9569C45.4053 81.5633 45.8411 81.015 46.1223 80.3121C46.4316 79.6092 46.5862 78.7516 46.5862 77.7394C46.5862 76.7273 46.4316 75.8697 46.1223 75.1668C45.8411 74.4358 45.4053 73.8875 44.8149 73.522C44.2526 73.1565 43.5637 72.9737 42.7483 72.9737C41.933 72.9737 41.2441 73.1565 40.6818 73.522C40.1195 73.8875 39.6837 74.4358 39.3744 75.1668C39.0932 75.8697 38.9526 76.7273 38.9526 77.7394C38.9526 78.7516 39.0932 79.6092 39.3744 80.3121C39.6837 81.015 40.1195 81.5633 40.6818 81.9569C41.2441 82.3224 41.933 82.5051 42.7483 82.5051ZM60.4593 89V66.4367H68.388L68.7254 69.9794L67.7554 69.642C68.1772 68.9109 68.6551 68.3205 69.1894 67.8706C69.7517 67.3927 70.3421 67.0131 70.9607 66.7319C71.5792 66.4508 72.2119 66.254 72.8585 66.1415C73.5052 66.029 74.1238 65.9728 74.7142 65.9728C75.6983 65.9728 76.6261 66.1134 77.4977 66.3945C78.3693 66.6476 79.1566 67.1115 79.8595 67.7863C80.5624 68.4611 81.1528 69.4311 81.6308 70.6963L80.3234 70.6542L80.6608 70.0637C81.0825 69.3327 81.5886 68.7141 82.1791 68.208C82.7695 67.7019 83.4162 67.2802 84.1191 66.9428C84.822 66.6054 85.539 66.3664 86.27 66.2258C87.001 66.0571 87.7039 65.9728 88.3787 65.9728C90.2344 65.9728 91.7948 66.3243 93.06 67.0272C94.3253 67.7301 95.2672 68.7704 95.8857 70.1481C96.5324 71.4976 96.8557 73.1424 96.8557 75.0825V89H88.2943V75.7994C88.2943 75.1809 88.1959 74.6607 87.9991 74.239C87.8023 73.8172 87.5071 73.4939 87.1135 73.269C86.7479 73.044 86.2981 72.9316 85.7639 72.9316C85.3421 72.9316 84.9485 73.0019 84.583 73.1424C84.2456 73.2549 83.9504 73.4377 83.6973 73.6907C83.4724 73.9438 83.2897 74.2249 83.1491 74.5342C83.0085 74.8435 82.9382 75.1949 82.9382 75.5886V89H74.3768V75.7994C74.3768 75.1809 74.2784 74.6607 74.0816 74.239C73.8848 73.8172 73.5895 73.4939 73.1959 73.269C72.8304 73.044 72.3805 72.9316 71.8463 72.9316C71.4246 72.9316 71.031 73.0019 70.6655 73.1424C70.3281 73.2549 70.0328 73.4377 69.7798 73.6907C69.5549 73.9438 69.3721 74.2249 69.2315 74.5342C69.0909 74.8435 69.0207 75.1949 69.0207 75.5886V89H60.4593ZM102.472 89V66.4367H111.033V89H102.472ZM106.774 62.3458C105.255 62.3458 104.06 61.9943 103.189 61.2914C102.345 60.5885 101.924 59.5904 101.924 58.2971C101.924 57.1162 102.359 56.1462 103.231 55.387C104.103 54.6279 105.283 54.2483 106.774 54.2483C108.292 54.2483 109.473 54.5998 110.316 55.3027C111.188 56.0056 111.624 57.0037 111.624 58.2971C111.624 59.4779 111.188 60.448 110.316 61.2071C109.445 61.9662 108.264 62.3458 106.774 62.3458ZM117.09 89V66.4367H125.019L125.44 70.9915L123.627 71.4976C123.936 70.4292 124.484 69.4873 125.272 68.672C126.087 67.8285 127.057 67.1677 128.182 66.6898C129.306 66.2118 130.501 65.9728 131.767 65.9728C133.454 65.9728 134.887 66.3243 136.068 67.0272C137.249 67.7301 138.135 68.7704 138.725 70.1481C139.344 71.4976 139.653 73.1424 139.653 75.0825V89H131.092V75.7994C131.092 75.1809 130.993 74.6607 130.797 74.239C130.6 73.8172 130.305 73.4939 129.911 73.269C129.517 73.044 129.053 72.9316 128.519 72.9316C128.097 72.9316 127.704 73.0019 127.338 73.1424C127.001 73.2549 126.706 73.4377 126.453 73.6907C126.2 73.9438 126.003 74.2249 125.862 74.5342C125.722 74.8435 125.651 75.1949 125.651 75.5886V89H121.392C120.323 89 119.424 89 118.693 89C117.99 89 117.455 89 117.09 89ZM160.304 89V59.4779H173.589C175.613 59.4779 177.413 59.9137 178.987 60.7854C180.562 61.657 181.799 62.8519 182.698 64.3702C183.598 65.8884 184.048 67.6317 184.048 69.5998C184.048 71.6523 183.598 73.4798 182.698 75.0825C181.799 76.6851 180.562 77.9503 178.987 78.8782C177.413 79.7779 175.613 80.2277 173.589 80.2277H169.413V89H160.304ZM169.245 72.4676H171.902C172.436 72.4676 172.914 72.3692 173.336 72.1724C173.757 71.9475 174.081 71.6382 174.306 71.2446C174.559 70.851 174.685 70.3589 174.685 69.7685C174.685 69.178 174.559 68.7001 174.306 68.3346C174.081 67.9691 173.757 67.7019 173.336 67.5332C172.914 67.3364 172.436 67.238 171.902 67.238H169.245V72.4676ZM196.314 89.3796C194.431 89.3796 192.758 88.8875 191.296 87.9035C189.834 86.8913 188.681 85.5136 187.837 83.7704C186.994 81.9991 186.572 79.9747 186.572 77.6973C186.572 75.3917 186.98 73.3674 187.795 71.6242C188.639 69.8528 189.791 68.4751 191.253 67.4911C192.744 66.4789 194.459 65.9728 196.399 65.9728C197.411 65.9728 198.339 66.1134 199.182 66.3945C200.026 66.6757 200.771 67.0693 201.418 67.5754C202.064 68.0815 202.627 68.672 203.104 69.3467C203.582 69.9934 203.99 70.6963 204.328 71.4555L202.598 71.4133V66.4367H210.991V89H202.388V83.4752L204.285 83.6439C204.004 84.4592 203.611 85.2184 203.104 85.9213C202.627 86.6242 202.05 87.2287 201.375 87.7348C200.701 88.2409 199.941 88.6485 199.098 88.9578C198.254 89.239 197.327 89.3796 196.314 89.3796ZM198.761 82.4208C199.576 82.4208 200.265 82.238 200.827 81.8725C201.418 81.507 201.853 80.9728 202.134 80.2699C202.444 79.567 202.598 78.7095 202.598 77.6973C202.598 76.6851 202.444 75.8275 202.134 75.1246C201.853 74.3936 201.418 73.8453 200.827 73.4798C200.265 73.1143 199.576 72.9316 198.761 72.9316C197.945 72.9316 197.256 73.1143 196.694 73.4798C196.132 73.8453 195.696 74.3936 195.387 75.1246C195.105 75.8275 194.965 76.6851 194.965 77.6973C194.965 78.7095 195.105 79.567 195.387 80.2699C195.696 80.9728 196.132 81.507 196.694 81.8725C197.256 82.238 197.945 82.4208 198.761 82.4208ZM216.883 89V66.4367H224.812L225.234 70.9915L223.42 71.4976C223.73 70.4292 224.278 69.4873 225.065 68.672C225.881 67.8285 226.851 67.1677 227.975 66.6898C229.1 66.2118 230.295 65.9728 231.56 65.9728C233.247 65.9728 234.681 66.3243 235.862 67.0272C237.043 67.7301 237.928 68.7704 238.519 70.1481C239.137 71.4976 239.447 73.1424 239.447 75.0825V89H230.885V75.7994C230.885 75.1809 230.787 74.6607 230.59 74.239C230.393 73.8172 230.098 73.4939 229.704 73.269C229.311 73.044 228.847 72.9316 228.313 72.9316C227.891 72.9316 227.497 73.0019 227.132 73.1424C226.794 73.2549 226.499 73.4377 226.246 73.6907C225.993 73.9438 225.796 74.2249 225.656 74.5342C225.515 74.8435 225.445 75.1949 225.445 75.5886V89H221.185C220.117 89 219.217 89 218.486 89C217.783 89 217.249 89 216.883 89ZM255.854 89.4217C253.239 89.4217 250.99 88.9157 249.106 87.9035C247.222 86.8913 245.774 85.5136 244.762 83.7704C243.75 81.9991 243.244 79.9747 243.244 77.6973C243.244 76.0103 243.525 74.4498 244.087 73.0159C244.65 71.582 245.437 70.3449 246.449 69.3046C247.489 68.2362 248.698 67.4208 250.076 66.8585C251.482 66.268 253.014 65.9728 254.673 65.9728C256.332 65.9728 257.836 66.268 259.186 66.8585C260.564 67.4208 261.744 68.2362 262.728 69.3046C263.713 70.3449 264.458 71.582 264.964 73.0159C265.498 74.4498 265.737 76.0103 265.681 77.6973L265.639 79.4686H247.967L246.997 75.462H258.848L258.047 76.3055V75.5464C258.047 75.0122 257.907 74.5483 257.625 74.1546C257.372 73.7329 257.007 73.4095 256.529 73.1846C256.051 72.9597 255.489 72.8472 254.842 72.8472C254.027 72.8472 253.338 73.0159 252.775 73.3533C252.213 73.6907 251.777 74.1687 251.468 74.7872C251.187 75.4058 251.046 76.1509 251.046 77.0225C251.046 78.0347 251.257 78.9203 251.679 79.6795C252.129 80.4386 252.775 81.029 253.619 81.4508C254.49 81.8725 255.559 82.0834 256.824 82.0834C257.668 82.0834 258.385 81.985 258.975 81.7882C259.594 81.5633 260.24 81.2118 260.915 80.7338L264.837 86.2587C263.797 87.074 262.771 87.7067 261.758 88.1565C260.774 88.6064 259.79 88.9297 258.806 89.1265C257.85 89.3233 256.866 89.4217 255.854 89.4217ZM269.642 89V57.791H278.204V89H269.642Z" fill="url(#paint0_linear_135_152)"/>
<defs>
<linearGradient id="paint0_linear_135_152" x1="1" y1="73.5" x2="282" y2="73.5" gradientUnits="userSpaceOnUse">
<stop stop-color="#5A5A5A"/>
<stop offset="1" stop-color="#FF9D00"/>
</linearGradient>
</defs>
</svg>
