<svg width="389" height="177" viewBox="0 0 389 177" fill="none" xmlns="http://www.w3.org/2000/svg">
<path d="M329.488 163.633C318.673 163.633 309.091 162.469 300.74 160.142C292.526 157.678 285.271 154.255 278.974 149.875C272.813 145.494 267.269 140.36 262.341 134.474L288.009 105.726C294.854 114.487 301.972 120.305 309.365 123.18C316.894 125.918 323.944 127.287 330.515 127.287C333.116 127.287 335.443 127.081 337.497 126.671C339.55 126.123 341.124 125.302 342.219 124.207C343.315 123.112 343.862 121.606 343.862 119.689C343.862 117.909 343.246 116.404 342.014 115.172C340.919 113.94 339.413 112.913 337.497 112.091C335.58 111.133 333.458 110.38 331.131 109.833C328.941 109.148 326.75 108.601 324.56 108.19C322.507 107.779 320.658 107.369 319.016 106.958C310.802 105.041 303.615 102.714 297.455 99.9761C291.294 97.2382 286.161 93.9527 282.054 90.1196C277.947 86.2866 274.867 81.9059 272.813 76.9776C270.897 72.0494 269.939 66.5051 269.939 60.3448C269.939 53.3631 271.513 46.9975 274.661 41.2479C277.947 35.4982 282.259 30.57 287.598 26.4631C293.074 22.3562 299.234 19.2076 306.079 17.0173C313.061 14.827 320.248 13.7318 327.64 13.7318C338.455 13.7318 347.49 14.7585 354.745 16.812C362.001 18.7285 368.093 21.5349 373.021 25.2311C377.949 28.9272 382.193 33.2395 385.752 38.1677L359.879 63.0143C356.867 60.1395 353.719 57.8122 350.433 56.0326C347.148 54.1161 343.725 52.7471 340.166 51.9257C336.744 50.9675 333.321 50.4883 329.899 50.4883C326.75 50.4883 324.081 50.7621 321.89 51.3097C319.7 51.7204 317.989 52.4733 316.757 53.5685C315.525 54.5267 314.909 55.8957 314.909 57.6753C314.909 59.455 315.662 60.9608 317.168 62.1929C318.81 63.2881 320.795 64.2463 323.123 65.0677C325.587 65.8891 327.982 66.5736 330.31 67.1212C332.774 67.5318 334.827 67.8741 336.47 68.1479C343.999 69.5168 350.912 71.4334 357.21 73.8975C363.507 76.2247 368.983 79.2364 373.637 82.9326C378.428 86.4919 382.056 91.0095 384.52 96.4853C387.121 101.824 388.422 108.19 388.422 115.582C388.422 126.123 385.752 134.953 380.413 142.072C375.211 149.19 368.161 154.598 359.263 158.294C350.365 161.853 340.44 163.633 329.488 163.633Z" fill="#5F9AFF"/>
<path d="M176.331 156.664C169.174 153.917 162.955 150.063 157.674 145.103C152.393 140.143 148.207 134.43 145.117 127.965C142.154 121.549 140.395 114.862 139.84 107.904C139.462 100.867 140.573 93.9615 143.174 87.1879C145.283 81.6924 147.708 76.9043 150.447 72.8237C153.236 68.6152 156.309 64.8095 159.669 61.4067C163.028 58.0038 166.706 54.7236 170.705 51.566C174.752 48.2806 179.089 44.8132 183.716 41.1638L216.118 15.7702L253.693 30.1935L253.723 32.4049L206.642 66.2411C201.986 69.5858 197.899 72.7828 194.383 75.8319C191.043 78.8023 187.693 81.989 184.334 85.3918C180.975 88.7947 176.825 92.9205 171.885 97.7692L167.764 86.7295C170.061 81.8924 173.449 77.8408 177.929 74.5748C182.408 71.3088 187.306 68.8632 192.623 67.238C198.116 65.5341 203.442 64.646 208.602 64.5738C213.89 64.5507 218.515 65.2996 222.477 66.8204C230.145 69.7639 236.389 74.507 241.209 81.0497C246.206 87.5136 249.346 94.8043 250.629 102.922C251.912 111.039 251.033 119.06 247.991 126.984C244.361 136.441 238.798 144.057 231.303 149.831C223.807 155.606 215.264 159.145 205.672 160.448C196.08 161.752 186.3 160.49 176.331 156.664ZM189.608 124.368C192.931 125.644 196.116 126.133 199.163 125.836C202.258 125.412 204.975 124.255 207.313 122.367C209.828 120.399 211.699 117.818 212.925 114.623C214.004 111.811 214.243 108.897 213.642 105.88C213.04 102.863 211.756 100.097 209.788 97.5822C207.821 95.0674 205.24 93.1968 202.045 91.9703C198.722 90.6947 195.488 90.3332 192.343 90.8857C189.248 91.3103 186.467 92.4424 184.001 94.282C181.663 96.1706 179.93 98.5846 178.802 101.524C177.575 104.719 177.199 107.801 177.672 110.769C178.274 113.786 179.583 116.488 181.599 118.875C183.616 121.262 186.285 123.093 189.608 124.368Z" fill="#5F9AFF"/>
<path d="M44.3542 161.579V55.622H0V17.8387H134.295V55.622H88.7084V161.579H44.3542Z" fill="#5F9AFF"/>
</svg>
