<svg width="1222" height="126" viewBox="0 0 1222 126" fill="none" xmlns="http://www.w3.org/2000/svg">
<path opacity="0.4" d="M44.5145 152V46.0427H0.160309V8.25946H134.455V46.0427H88.8688V152H44.5145ZM187.692 154.053C174.961 154.053 164.009 151.589 154.837 146.661C145.665 141.733 138.615 135.025 133.687 126.537C128.758 117.913 126.294 108.056 126.294 96.9679C126.294 88.7542 127.663 81.1565 130.401 74.1748C133.139 67.1931 136.972 61.1697 141.9 56.1045C146.965 50.9025 152.852 46.9325 159.56 44.1946C166.405 41.3198 173.866 39.8824 181.942 39.8824C190.019 39.8824 197.343 41.3198 203.914 44.1946C210.622 46.9325 216.372 50.9025 221.163 56.1045C225.954 61.1697 229.582 67.1931 232.046 74.1748C234.647 81.1565 235.811 88.7542 235.537 96.9679L235.332 105.592H149.293L144.57 86.0847H202.271L198.37 90.1916V86.4954C198.37 83.8944 197.685 81.6356 196.316 79.719C195.084 77.6656 193.305 76.0913 190.977 74.9961C188.65 73.901 185.912 73.3534 182.764 73.3534C178.794 73.3534 175.44 74.1748 172.702 75.8175C169.964 77.4603 167.842 79.7875 166.336 82.7992C164.967 85.8109 164.283 89.4386 164.283 93.6824C164.283 98.6107 165.31 102.923 167.363 106.619C169.553 110.315 172.702 113.19 176.809 115.243C181.053 117.297 186.255 118.324 192.415 118.324C196.522 118.324 200.013 117.845 202.887 116.886C205.899 115.791 209.048 114.08 212.333 111.753L231.43 138.653C226.365 142.623 221.368 145.703 216.44 147.893C211.649 150.083 206.857 151.658 202.066 152.616C197.412 153.574 192.62 154.053 187.692 154.053ZM304.314 154.053C293.226 154.053 283.301 151.589 274.539 146.661C265.915 141.733 259.07 135.025 254.005 126.537C249.077 117.913 246.613 108.056 246.613 96.9679C246.613 85.8794 249.077 76.0913 254.005 67.6038C259.07 58.9793 265.915 52.203 274.539 47.2747C283.301 42.3465 293.226 39.8824 304.314 39.8824C314.171 39.8824 323.274 41.3882 331.625 44.3999C339.976 47.4116 346.752 51.7923 351.954 57.5419L329.366 84.2366C327.86 82.5939 326.081 81.088 324.027 79.719C321.974 78.3501 319.647 77.3234 317.046 76.6389C314.445 75.8175 311.433 75.4068 308.01 75.4068C303.904 75.4068 300.276 76.2967 297.127 78.0763C294.116 79.8559 291.788 82.3885 290.146 85.674C288.503 88.8226 287.681 92.5188 287.681 96.7626C287.681 100.869 288.434 104.566 289.94 107.851C291.583 111 293.91 113.532 296.922 115.449C300.071 117.365 303.767 118.324 308.01 118.324C311.433 118.324 314.445 117.981 317.046 117.297C319.647 116.612 321.974 115.654 324.027 114.422C326.081 113.053 327.86 111.479 329.366 109.699L351.749 136.599C346.684 142.212 339.976 146.524 331.625 149.536C323.274 152.548 314.171 154.053 304.314 154.053ZM368.327 152V0.0457247H408.985V64.3183L400.155 66.7824C401.661 61.5804 404.331 56.9944 408.164 53.0244C412.134 48.9175 416.857 45.7005 422.332 43.3732C427.808 41.046 433.626 39.8824 439.787 39.8824C448 39.8824 454.982 41.5936 460.732 45.016C466.481 48.4384 470.793 53.5035 473.668 60.2114C476.68 66.7824 478.186 74.7908 478.186 84.2366V152H436.501V87.7274C436.501 84.7157 436.022 82.1832 435.064 80.1297C434.105 78.0763 432.668 76.502 430.751 75.4068C428.835 74.3117 426.576 73.7641 423.975 73.7641C421.922 73.7641 420.005 74.1063 418.225 74.7908C416.583 75.3384 415.145 76.2282 413.913 77.4603C412.681 78.6923 411.723 80.0613 411.038 81.5671C410.354 83.073 410.012 84.7842 410.012 86.7007V152H389.272C384.07 152 379.689 152 376.13 152C372.708 152 370.107 152 368.327 152ZM552.528 152C544.862 152 537.675 150.631 530.967 147.893C524.259 145.155 518.304 141.322 513.102 136.394C508.037 131.466 503.999 125.853 500.987 119.556C498.112 113.122 496.675 106.277 496.675 99.0213C496.675 93.1348 497.222 87.7959 498.317 83.0045C499.413 78.0763 500.919 73.4218 502.835 69.0412C504.752 64.6605 507.01 60.2798 509.611 55.8992C512.212 51.3816 515.019 46.5903 518.03 41.5251L539.181 6.20603H579.428L580.25 8.25946L548.421 56.7206C545.273 61.5119 542.603 65.961 540.413 70.0679C538.359 74.0379 536.375 78.2132 534.458 82.5939C532.541 86.9745 530.146 92.3135 527.271 98.6107L519.468 89.7809C519.879 84.442 521.59 79.4453 524.601 74.7908C527.613 70.1363 531.309 66.0979 535.69 62.6755C540.208 59.1162 544.862 56.3783 549.653 54.4618C554.582 52.5452 559.168 51.587 563.411 51.587C571.625 51.587 579.154 53.7773 585.999 58.158C592.981 62.4017 598.525 68.0829 602.632 75.2015C606.739 82.3201 608.792 90.1231 608.792 98.6107C608.792 108.741 606.328 117.845 601.4 125.921C596.472 133.998 589.764 140.364 581.276 145.018C572.789 149.673 563.206 152 552.528 152ZM553.35 117.092C556.909 117.092 560.057 116.407 562.795 115.038C565.533 113.532 567.655 111.479 569.161 108.878C570.804 106.14 571.625 103.06 571.625 99.6374C571.625 96.6257 570.804 93.8193 569.161 91.2183C567.518 88.6173 565.328 86.4954 562.59 84.8526C559.852 83.2099 556.772 82.3885 553.35 82.3885C549.79 82.3885 546.642 83.2099 543.904 84.8526C541.166 86.3585 538.976 88.4119 537.333 91.0129C535.827 93.614 535.074 96.4888 535.074 99.6374C535.074 103.06 535.827 106.071 537.333 108.672C538.976 111.274 541.166 113.327 543.904 114.833C546.642 116.339 549.79 117.092 553.35 117.092ZM679.575 154.053C668.76 154.053 659.177 152.89 650.827 150.563C642.613 148.098 635.358 144.676 629.06 140.295C622.9 135.915 617.356 130.781 612.428 124.895L638.096 96.1465C644.94 104.908 652.059 110.726 659.451 113.601C666.981 116.339 674.031 117.708 680.602 117.708C683.203 117.708 685.53 117.502 687.583 117.092C689.637 116.544 691.211 115.723 692.306 114.627C693.401 113.532 693.949 112.026 693.949 110.11C693.949 108.33 693.333 106.824 692.101 105.592C691.006 104.36 689.5 103.334 687.583 102.512C685.667 101.554 683.545 100.801 681.218 100.253C679.027 99.5689 676.837 99.0213 674.647 98.6107C672.593 98.2 670.745 97.7893 669.102 97.3786C660.889 95.4621 653.702 93.1348 647.541 90.3969C641.381 87.659 636.247 84.3735 632.141 80.5404C628.034 76.7073 624.954 72.3267 622.9 67.3984C620.984 62.4702 620.025 56.9259 620.025 50.7656C620.025 43.7839 621.6 37.4183 624.748 31.6686C628.034 25.919 632.346 20.9908 637.685 16.8839C643.161 12.777 649.321 9.62842 656.166 7.43809C663.147 5.24776 670.334 4.15259 677.727 4.15259C688.542 4.15259 697.577 5.17931 704.832 7.23274C712.088 9.14928 718.18 11.9556 723.108 15.6518C728.036 19.348 732.28 23.6602 735.839 28.5885L709.966 53.4351C706.954 50.5602 703.805 48.233 700.52 46.4534C697.234 44.5368 693.812 43.1679 690.253 42.3465C686.83 41.3882 683.408 40.9091 679.986 40.9091C676.837 40.9091 674.168 41.1829 671.977 41.7305C669.787 42.1412 668.076 42.8941 666.844 43.9893C665.612 44.9475 664.996 46.3165 664.996 48.0961C664.996 49.8758 665.748 51.3816 667.254 52.6137C668.897 53.7089 670.882 54.6671 673.209 55.4885C675.673 56.3099 678.069 56.9944 680.396 57.5419C682.86 57.9526 684.914 58.2949 686.557 58.5687C694.086 59.9376 700.999 61.8541 707.296 64.3183C713.594 66.6455 719.069 69.6572 723.724 73.3534C728.515 76.9127 732.143 81.4302 734.607 86.9061C737.208 92.245 738.509 98.6107 738.509 106.003C738.509 116.544 735.839 125.374 730.5 132.492C725.298 139.611 718.248 145.018 709.35 148.715C700.452 152.274 690.527 154.053 679.575 154.053ZM811.945 154.053C799.213 154.053 788.262 151.589 779.09 146.661C769.918 141.733 762.867 135.025 757.939 126.537C753.011 117.913 750.547 108.056 750.547 96.9679C750.547 88.7542 751.916 81.1565 754.654 74.1748C757.392 67.1931 761.225 61.1697 766.153 56.1045C771.218 50.9025 777.105 46.9325 783.813 44.1946C790.657 41.3198 798.118 39.8824 806.195 39.8824C814.272 39.8824 821.596 41.3198 828.167 44.1946C834.875 46.9325 840.624 50.9025 845.416 56.1045C850.207 61.1697 853.835 67.1931 856.299 74.1748C858.9 81.1565 860.063 88.7542 859.79 96.9679L859.584 105.592H773.545L768.822 86.0847H826.524L822.622 90.1916V86.4954C822.622 83.8944 821.938 81.6356 820.569 79.719C819.337 77.6656 817.557 76.0913 815.23 74.9961C812.903 73.901 810.165 73.3534 807.016 73.3534C803.046 73.3534 799.692 74.1748 796.955 75.8175C794.217 77.4603 792.095 79.7875 790.589 82.7992C789.22 85.8109 788.535 89.4386 788.535 93.6824C788.535 98.6107 789.562 102.923 791.616 106.619C793.806 110.315 796.955 113.19 801.061 115.243C805.305 117.297 810.507 118.324 816.667 118.324C820.774 118.324 824.265 117.845 827.14 116.886C830.152 115.791 833.3 114.08 836.586 111.753L855.683 138.653C850.618 142.623 845.621 145.703 840.693 147.893C835.901 150.083 831.11 151.658 826.319 152.616C821.664 153.574 816.873 154.053 811.945 154.053ZM879.079 152V42.1412H917.684L919.737 64.3183L910.907 66.7824C912.413 61.5804 915.083 56.9944 918.916 53.0244C922.886 48.9175 927.609 45.7005 933.084 43.3732C938.56 41.046 944.378 39.8824 950.539 39.8824C958.752 39.8824 965.734 41.5936 971.484 45.016C977.233 48.4384 981.546 53.5035 984.42 60.2114C987.432 66.7824 988.938 74.7908 988.938 84.2366V152H947.253V87.7274C947.253 84.7157 946.774 82.1832 945.816 80.1297C944.857 78.0763 943.42 76.502 941.504 75.4068C939.587 74.3117 937.328 73.7641 934.727 73.7641C932.674 73.7641 930.757 74.1063 928.978 74.7908C927.335 75.3384 925.897 76.2282 924.665 77.4603C923.433 78.6923 922.475 80.0613 921.791 81.5671C921.106 83.073 920.764 84.7842 920.764 86.7007V152H900.024C894.822 152 890.441 152 886.882 152C883.46 152 880.859 152 879.079 152ZM1053.22 154.053C1041.31 154.053 1030.9 152.274 1022.01 148.715C1013.24 145.018 1006.4 140.432 1001.47 134.956L1025.7 114.217C1030.08 118.05 1035.08 120.925 1040.69 122.841C1046.44 124.621 1051.23 125.511 1055.07 125.511C1056.44 125.511 1057.6 125.442 1058.56 125.305C1059.65 125.032 1060.47 124.689 1061.02 124.279C1061.71 123.731 1062.19 123.183 1062.46 122.636C1062.87 122.088 1063.07 121.404 1063.07 120.582C1063.07 118.529 1061.98 117.023 1059.79 116.065C1058.56 115.517 1056.5 114.833 1053.63 114.011C1050.89 113.19 1047.26 112.232 1042.75 111.137C1037.41 109.768 1032.48 108.056 1027.96 106.003C1023.58 103.95 1019.82 101.554 1016.67 98.816C1013.38 95.8043 1010.78 92.3819 1008.86 88.5488C1007.08 84.7157 1006.19 80.4035 1006.19 75.6122C1006.19 69.9994 1007.5 65.0028 1010.1 60.6221C1012.7 56.2414 1016.26 52.5452 1020.77 49.5335C1025.29 46.3849 1030.36 43.9893 1035.97 42.3465C1041.58 40.7038 1047.33 39.8824 1053.22 39.8824C1059.93 39.8824 1066.16 40.5669 1071.9 41.9358C1077.79 43.1679 1083.27 45.016 1088.33 47.4801C1093.53 49.8073 1098.26 52.6137 1102.5 55.8992L1081.35 79.5137C1079.02 77.5972 1076.29 75.7491 1073.14 73.9694C1070.13 72.1898 1066.91 70.7524 1063.49 69.6572C1060.2 68.4251 1057.12 67.8091 1054.25 67.8091C1052.74 67.8091 1051.44 67.946 1050.34 68.2198C1049.39 68.3567 1048.56 68.6989 1047.88 69.2465C1047.2 69.6572 1046.65 70.2048 1046.24 70.8893C1045.96 71.4369 1045.83 72.1213 1045.83 72.9427C1045.83 74.0379 1046.17 75.0646 1046.85 76.0229C1047.54 76.9811 1048.63 77.8025 1050.14 78.487C1051.37 79.0346 1053.42 79.7875 1056.3 80.7458C1059.31 81.704 1063.69 83.0045 1069.44 84.6473C1075.6 86.4269 1081.01 88.4804 1085.66 90.8076C1090.45 93.1348 1094.29 95.8727 1097.16 99.0213C1099.08 101.212 1100.58 103.676 1101.68 106.414C1102.77 109.152 1103.32 112.095 1103.32 115.243C1103.32 122.773 1101.13 129.481 1096.75 135.367C1092.51 141.117 1086.62 145.703 1079.09 149.125C1071.56 152.411 1062.94 154.053 1053.22 154.053ZM1172.9 154.053C1160.17 154.053 1149.22 151.589 1140.05 146.661C1130.87 141.733 1123.82 135.025 1118.89 126.537C1113.97 117.913 1111.5 108.056 1111.5 96.9679C1111.5 88.7542 1112.87 81.1565 1115.61 74.1748C1118.35 67.1931 1122.18 61.1697 1127.11 56.1045C1132.17 50.9025 1138.06 46.9325 1144.77 44.1946C1151.61 41.3198 1159.07 39.8824 1167.15 39.8824C1175.23 39.8824 1182.55 41.3198 1189.12 44.1946C1195.83 46.9325 1201.58 50.9025 1206.37 56.1045C1211.16 61.1697 1214.79 67.1931 1217.25 74.1748C1219.86 81.1565 1221.02 88.7542 1220.75 96.9679L1220.54 105.592H1134.5L1129.78 86.0847H1187.48L1183.58 90.1916V86.4954C1183.58 83.8944 1182.89 81.6356 1181.52 79.719C1180.29 77.6656 1178.51 76.0913 1176.19 74.9961C1173.86 73.901 1171.12 73.3534 1167.97 73.3534C1164 73.3534 1160.65 74.1748 1157.91 75.8175C1155.17 77.4603 1153.05 79.7875 1151.54 82.7992C1150.18 85.8109 1149.49 89.4386 1149.49 93.6824C1149.49 98.6107 1150.52 102.923 1152.57 106.619C1154.76 110.315 1157.91 113.19 1162.02 115.243C1166.26 117.297 1171.46 118.324 1177.62 118.324C1181.73 118.324 1185.22 117.845 1188.1 116.886C1191.11 115.791 1194.26 114.08 1197.54 111.753L1216.64 138.653C1211.57 142.623 1206.58 145.703 1201.65 147.893C1196.86 150.083 1192.07 151.658 1187.27 152.616C1182.62 153.574 1177.83 154.053 1172.9 154.053Z" fill="#257FFF"/>
</svg>
