<svg width="286" height="37" viewBox="0 0 286 37" fill="none" xmlns="http://www.w3.org/2000/svg">
<path opacity="0.9" d="M10.8549 36V11.232H0.486875V2.4H31.8789V11.232H21.2229V36H10.8549ZM44.3233 36.48C41.3473 36.48 38.7873 35.904 36.6433 34.752C34.4993 33.6 32.8513 32.032 31.6992 30.048C30.5473 28.032 29.9713 25.728 29.9713 23.136C29.9713 21.216 30.2913 19.44 30.9313 17.808C31.5713 16.176 32.4673 14.768 33.6193 13.584C34.8033 12.368 36.1793 11.44 37.7473 10.8C39.3473 10.128 41.0913 9.792 42.9793 9.792C44.8673 9.792 46.5793 10.128 48.1153 10.8C49.6833 11.44 51.0273 12.368 52.1473 13.584C53.2673 14.768 54.1153 16.176 54.6913 17.808C55.2993 19.44 55.5713 21.216 55.5073 23.136L55.4593 25.152H35.3473L34.2433 20.592H47.7313L46.8193 21.552V20.688C46.8193 20.08 46.6593 19.552 46.3393 19.104C46.0513 18.624 45.6353 18.256 45.0913 18C44.5473 17.744 43.9073 17.616 43.1713 17.616C42.2433 17.616 41.4593 17.808 40.8193 18.192C40.1793 18.576 39.6833 19.12 39.3313 19.824C39.0113 20.528 38.8513 21.376 38.8513 22.368C38.8513 23.52 39.0913 24.528 39.5713 25.392C40.0833 26.256 40.8193 26.928 41.7793 27.408C42.7713 27.888 43.9873 28.128 45.4273 28.128C46.3873 28.128 47.2033 28.016 47.8753 27.792C48.5793 27.536 49.3153 27.136 50.0833 26.592L54.5473 32.88C53.3633 33.808 52.1953 34.528 51.0433 35.04C49.9233 35.552 48.8033 35.92 47.6833 36.144C46.5953 36.368 45.4753 36.48 44.3233 36.48ZM71.5843 36.48C68.9923 36.48 66.6723 35.904 64.6243 34.752C62.6083 33.6 61.0083 32.032 59.8242 30.048C58.6723 28.032 58.0963 25.728 58.0963 23.136C58.0963 20.544 58.6723 18.256 59.8242 16.272C61.0083 14.256 62.6083 12.672 64.6243 11.52C66.6723 10.368 68.9923 9.792 71.5843 9.792C73.8883 9.792 76.0163 10.144 77.9683 10.848C79.9203 11.552 81.5043 12.576 82.7203 13.92L77.4403 20.16C77.0883 19.776 76.6723 19.424 76.1923 19.104C75.7123 18.784 75.1683 18.544 74.5603 18.384C73.9523 18.192 73.2483 18.096 72.4483 18.096C71.4883 18.096 70.6403 18.304 69.9043 18.72C69.2003 19.136 68.6563 19.728 68.2723 20.496C67.8883 21.232 67.6963 22.096 67.6963 23.088C67.6963 24.048 67.8723 24.912 68.2243 25.68C68.6083 26.416 69.1523 27.008 69.8563 27.456C70.5923 27.904 71.4563 28.128 72.4483 28.128C73.2483 28.128 73.9523 28.048 74.5603 27.888C75.1683 27.728 75.7123 27.504 76.1923 27.216C76.6723 26.896 77.0883 26.528 77.4403 26.112L82.6723 32.4C81.4883 33.712 79.9203 34.72 77.9683 35.424C76.0163 36.128 73.8883 36.48 71.5843 36.48ZM86.5475 36V0.48H96.0515V15.504L93.9875 16.08C94.3395 14.864 94.9635 13.792 95.8595 12.864C96.7875 11.904 97.8915 11.152 99.1715 10.608C100.452 10.064 101.812 9.792 103.252 9.792C105.172 9.792 106.804 10.192 108.148 10.992C109.492 11.792 110.5 12.976 111.172 14.544C111.876 16.08 112.228 17.952 112.228 20.16V36H102.484V20.976C102.484 20.272 102.372 19.68 102.148 19.2C101.924 18.72 101.588 18.352 101.14 18.096C100.692 17.84 100.164 17.712 99.5555 17.712C99.0755 17.712 98.6275 17.792 98.2115 17.952C97.8275 18.08 97.4915 18.288 97.2035 18.576C96.9155 18.864 96.6915 19.184 96.5315 19.536C96.3715 19.888 96.2915 20.288 96.2915 20.736V36H91.4435C90.2275 36 89.2035 36 88.3715 36C87.5715 36 86.9635 36 86.5475 36ZM129.605 36C127.813 36 126.133 35.68 124.565 35.04C122.997 34.4 121.605 33.504 120.389 32.352C119.205 31.2 118.261 29.888 117.557 28.416C116.885 26.912 116.549 25.312 116.549 23.616C116.549 22.24 116.677 20.992 116.933 19.872C117.189 18.72 117.541 17.632 117.989 16.608C118.437 15.584 118.965 14.56 119.573 13.536C120.181 12.48 120.837 11.36 121.541 10.176L126.485 1.92H135.893L136.085 2.4L128.645 13.728C127.909 14.848 127.285 15.888 126.773 16.848C126.293 17.776 125.829 18.752 125.381 19.776C124.933 20.8 124.373 22.048 123.701 23.52L121.877 21.456C121.973 20.208 122.373 19.04 123.077 17.952C123.781 16.864 124.645 15.92 125.669 15.12C126.725 14.288 127.813 13.648 128.933 13.2C130.085 12.752 131.157 12.528 132.149 12.528C134.069 12.528 135.829 13.04 137.429 14.064C139.061 15.056 140.357 16.384 141.317 18.048C142.277 19.712 142.757 21.536 142.757 23.52C142.757 25.888 142.181 28.016 141.029 29.904C139.877 31.792 138.309 33.28 136.325 34.368C134.341 35.456 132.101 36 129.605 36ZM129.797 27.84C130.629 27.84 131.365 27.68 132.005 27.36C132.645 27.008 133.141 26.528 133.493 25.92C133.877 25.28 134.069 24.56 134.069 23.76C134.069 23.056 133.877 22.4 133.493 21.792C133.109 21.184 132.597 20.688 131.957 20.304C131.317 19.92 130.597 19.728 129.797 19.728C128.965 19.728 128.229 19.92 127.589 20.304C126.949 20.656 126.437 21.136 126.053 21.744C125.701 22.352 125.525 23.024 125.525 23.76C125.525 24.56 125.701 25.264 126.053 25.872C126.437 26.48 126.949 26.96 127.589 27.312C128.229 27.664 128.965 27.84 129.797 27.84ZM159.303 36.48C156.775 36.48 154.535 36.208 152.583 35.664C150.663 35.088 148.967 34.288 147.495 33.264C146.055 32.24 144.759 31.04 143.607 29.664L149.607 22.944C151.207 24.992 152.871 26.352 154.599 27.024C156.359 27.664 158.007 27.984 159.543 27.984C160.151 27.984 160.695 27.936 161.175 27.84C161.655 27.712 162.023 27.52 162.279 27.264C162.535 27.008 162.663 26.656 162.663 26.208C162.663 25.792 162.519 25.44 162.231 25.152C161.975 24.864 161.623 24.624 161.175 24.432C160.727 24.208 160.231 24.032 159.687 23.904C159.175 23.744 158.663 23.616 158.151 23.52C157.671 23.424 157.239 23.328 156.855 23.232C154.935 22.784 153.255 22.24 151.815 21.6C150.375 20.96 149.175 20.192 148.215 19.296C147.255 18.4 146.535 17.376 146.055 16.224C145.607 15.072 145.383 13.776 145.383 12.336C145.383 10.704 145.751 9.216 146.487 7.872C147.255 6.528 148.263 5.376 149.511 4.416C150.791 3.456 152.231 2.72 153.831 2.208C155.463 1.696 157.143 1.44 158.871 1.44C161.399 1.44 163.511 1.68 165.207 2.16C166.903 2.608 168.327 3.264 169.479 4.128C170.631 4.992 171.623 6 172.455 7.152L166.407 12.96C165.703 12.288 164.967 11.744 164.199 11.328C163.431 10.88 162.631 10.56 161.799 10.368C160.999 10.144 160.199 10.032 159.399 10.032C158.663 10.032 158.039 10.096 157.527 10.224C157.015 10.32 156.615 10.496 156.327 10.752C156.039 10.976 155.895 11.296 155.895 11.712C155.895 12.128 156.071 12.48 156.423 12.768C156.807 13.024 157.271 13.248 157.815 13.44C158.391 13.632 158.951 13.792 159.495 13.92C160.071 14.016 160.551 14.096 160.935 14.16C162.695 14.48 164.311 14.928 165.783 15.504C167.255 16.048 168.535 16.752 169.623 17.616C170.743 18.448 171.591 19.504 172.167 20.784C172.775 22.032 173.079 23.52 173.079 25.248C173.079 27.712 172.455 29.776 171.207 31.44C169.991 33.104 168.343 34.368 166.263 35.232C164.183 36.064 161.863 36.48 159.303 36.48ZM190.245 36.48C187.269 36.48 184.709 35.904 182.565 34.752C180.421 33.6 178.773 32.032 177.621 30.048C176.469 28.032 175.893 25.728 175.893 23.136C175.893 21.216 176.213 19.44 176.853 17.808C177.493 16.176 178.389 14.768 179.541 13.584C180.725 12.368 182.101 11.44 183.669 10.8C185.269 10.128 187.013 9.792 188.901 9.792C190.789 9.792 192.501 10.128 194.037 10.8C195.605 11.44 196.949 12.368 198.069 13.584C199.189 14.768 200.037 16.176 200.613 17.808C201.221 19.44 201.493 21.216 201.429 23.136L201.381 25.152H181.269L180.165 20.592H193.653L192.741 21.552V20.688C192.741 20.08 192.581 19.552 192.261 19.104C191.973 18.624 191.557 18.256 191.013 18C190.469 17.744 189.829 17.616 189.093 17.616C188.165 17.616 187.381 17.808 186.741 18.192C186.101 18.576 185.605 19.12 185.253 19.824C184.933 20.528 184.773 21.376 184.773 22.368C184.773 23.52 185.013 24.528 185.493 25.392C186.005 26.256 186.741 26.928 187.701 27.408C188.693 27.888 189.909 28.128 191.349 28.128C192.309 28.128 193.125 28.016 193.797 27.792C194.501 27.536 195.237 27.136 196.005 26.592L200.469 32.88C199.285 33.808 198.117 34.528 196.965 35.04C195.845 35.552 194.725 35.92 193.605 36.144C192.517 36.368 191.397 36.48 190.245 36.48ZM205.938 36V10.32H214.962L215.442 15.504L213.378 16.08C213.73 14.864 214.354 13.792 215.25 12.864C216.178 11.904 217.282 11.152 218.562 10.608C219.842 10.064 221.202 9.792 222.642 9.792C224.562 9.792 226.194 10.192 227.538 10.992C228.882 11.792 229.89 12.976 230.562 14.544C231.266 16.08 231.618 17.952 231.618 20.16V36H221.874V20.976C221.874 20.272 221.762 19.68 221.538 19.2C221.314 18.72 220.978 18.352 220.53 18.096C220.082 17.84 219.554 17.712 218.946 17.712C218.466 17.712 218.018 17.792 217.602 17.952C217.218 18.08 216.882 18.288 216.594 18.576C216.306 18.864 216.082 19.184 215.922 19.536C215.762 19.888 215.682 20.288 215.682 20.736V36H210.834C209.618 36 208.594 36 207.762 36C206.962 36 206.354 36 205.938 36ZM246.644 36.48C243.86 36.48 241.428 36.064 239.348 35.232C237.3 34.368 235.7 33.296 234.548 32.016L240.212 27.168C241.236 28.064 242.404 28.736 243.716 29.184C245.06 29.6 246.18 29.808 247.076 29.808C247.396 29.808 247.668 29.792 247.892 29.76C248.148 29.696 248.34 29.616 248.468 29.52C248.628 29.392 248.74 29.264 248.804 29.136C248.9 29.008 248.948 28.848 248.948 28.656C248.948 28.176 248.692 27.824 248.18 27.6C247.892 27.472 247.412 27.312 246.74 27.12C246.1 26.928 245.252 26.704 244.196 26.448C242.948 26.128 241.796 25.728 240.74 25.248C239.716 24.768 238.836 24.208 238.1 23.568C237.332 22.864 236.724 22.064 236.276 21.168C235.86 20.272 235.652 19.264 235.652 18.144C235.652 16.832 235.956 15.664 236.564 14.64C237.172 13.616 238.004 12.752 239.06 12.048C240.116 11.312 241.3 10.752 242.612 10.368C243.924 9.984 245.268 9.792 246.644 9.792C248.212 9.792 249.668 9.952 251.012 10.272C252.388 10.56 253.668 10.992 254.852 11.568C256.068 12.112 257.172 12.768 258.164 13.536L253.22 19.056C252.676 18.608 252.036 18.176 251.3 17.76C250.596 17.344 249.844 17.008 249.044 16.752C248.276 16.464 247.556 16.32 246.884 16.32C246.532 16.32 246.228 16.352 245.972 16.416C245.748 16.448 245.556 16.528 245.396 16.656C245.236 16.752 245.108 16.88 245.012 17.04C244.948 17.168 244.916 17.328 244.916 17.52C244.916 17.776 244.996 18.016 245.156 18.24C245.316 18.464 245.572 18.656 245.924 18.816C246.212 18.944 246.692 19.12 247.364 19.344C248.068 19.568 249.092 19.872 250.436 20.256C251.876 20.672 253.14 21.152 254.228 21.696C255.348 22.24 256.244 22.88 256.916 23.616C257.364 24.128 257.716 24.704 257.972 25.344C258.228 25.984 258.356 26.672 258.356 27.408C258.356 29.168 257.844 30.736 256.82 32.112C255.828 33.456 254.452 34.528 252.692 35.328C250.932 36.096 248.916 36.48 246.644 36.48ZM274.62 36.48C271.644 36.48 269.084 35.904 266.94 34.752C264.796 33.6 263.148 32.032 261.996 30.048C260.844 28.032 260.268 25.728 260.268 23.136C260.268 21.216 260.588 19.44 261.228 17.808C261.868 16.176 262.764 14.768 263.916 13.584C265.1 12.368 266.476 11.44 268.044 10.8C269.644 10.128 271.388 9.792 273.276 9.792C275.164 9.792 276.876 10.128 278.412 10.8C279.98 11.44 281.324 12.368 282.444 13.584C283.564 14.768 284.412 16.176 284.988 17.808C285.596 19.44 285.868 21.216 285.804 23.136L285.756 25.152H265.644L264.54 20.592H278.028L277.116 21.552V20.688C277.116 20.08 276.956 19.552 276.636 19.104C276.348 18.624 275.932 18.256 275.388 18C274.844 17.744 274.204 17.616 273.468 17.616C272.54 17.616 271.756 17.808 271.116 18.192C270.476 18.576 269.98 19.12 269.628 19.824C269.308 20.528 269.148 21.376 269.148 22.368C269.148 23.52 269.388 24.528 269.868 25.392C270.38 26.256 271.116 26.928 272.076 27.408C273.068 27.888 274.284 28.128 275.724 28.128C276.684 28.128 277.5 28.016 278.172 27.792C278.876 27.536 279.612 27.136 280.38 26.592L284.844 32.88C283.66 33.808 282.492 34.528 281.34 35.04C280.22 35.552 279.1 35.92 277.98 36.144C276.892 36.368 275.772 36.48 274.62 36.48Z" fill="#4E8FFF"/>
</svg>
