<svg width="1255" height="167" viewBox="0 0 1255 167" fill="none" xmlns="http://www.w3.org/2000/svg">
<path d="M0.24 188L53.068 56.4H85.028L137.48 188H97.248L76.192 130.472C74.8133 126.587 73.6227 123.265 72.62 120.508C71.6173 117.751 70.74 115.181 69.988 112.8C69.236 110.293 68.484 107.661 67.732 104.904C66.98 102.021 66.228 98.6373 65.476 94.752H71.868C71.116 98.6373 70.364 102.021 69.612 104.904C68.86 107.661 68.0453 110.293 67.168 112.8C66.416 115.181 65.476 117.751 64.348 120.508C63.3453 123.265 62.1547 126.587 60.776 130.472L39.72 188H0.24ZM26.56 168.448L38.404 140.812H99.504L110.22 168.448H26.56ZM178.633 190.068C170.361 190.068 162.966 187.875 156.449 183.488C150.057 178.976 144.981 172.835 141.221 165.064C137.586 157.168 135.769 148.081 135.769 137.804C135.769 127.652 137.649 118.628 141.409 110.732C145.169 102.836 150.308 96.632 156.825 92.12C163.468 87.608 171.05 85.352 179.573 85.352C183.834 85.352 187.908 85.9787 191.793 87.232C195.678 88.36 199.188 90.052 202.321 92.308C205.454 94.4387 208.086 97.008 210.217 100.016C212.473 102.899 213.977 106.032 214.729 109.416L206.269 112.048V48.88H244.621V188H210.217L207.209 165.816L214.917 167.508C214.29 170.767 212.912 173.775 210.781 176.532C208.65 179.289 205.956 181.671 202.697 183.676C199.564 185.681 195.929 187.248 191.793 188.376C187.657 189.504 183.27 190.068 178.633 190.068ZM190.101 159.048C193.736 159.048 196.806 158.233 199.313 156.604C201.945 154.849 203.888 152.405 205.141 149.272C206.52 146.139 207.209 142.316 207.209 137.804C207.209 133.292 206.52 129.469 205.141 126.336C203.888 123.077 201.945 120.633 199.313 119.004C196.806 117.375 193.736 116.56 190.101 116.56C186.466 116.56 183.396 117.375 180.889 119.004C178.382 120.633 176.44 123.077 175.061 126.336C173.808 129.469 173.181 133.292 173.181 137.804C173.181 142.316 173.808 146.139 175.061 149.272C176.44 152.405 178.382 154.849 180.889 156.604C183.396 158.233 186.466 159.048 190.101 159.048ZM269.051 188V87.42H304.395L305.899 103.212L301.575 101.708C303.455 98.4493 305.585 95.8173 307.967 93.812C310.473 91.6813 313.105 89.9893 315.863 88.736C318.62 87.4827 321.44 86.6053 324.323 86.104C327.205 85.6027 329.963 85.352 332.595 85.352C336.981 85.352 341.117 85.9787 345.003 87.232C348.888 88.36 352.397 90.428 355.531 93.436C358.664 96.444 361.296 100.768 363.427 106.408L357.599 106.22L359.103 103.588C360.983 100.329 363.239 97.572 365.871 95.316C368.503 93.06 371.385 91.18 374.519 89.676C377.652 88.172 380.848 87.1067 384.107 86.48C387.365 85.728 390.499 85.352 393.507 85.352C401.779 85.352 408.735 86.9187 414.375 90.052C420.015 93.1853 424.213 97.8227 426.971 103.964C429.853 109.98 431.295 117.312 431.295 125.96V188H393.131V129.156C393.131 126.399 392.692 124.08 391.815 122.2C390.937 120.32 389.621 118.879 387.867 117.876C386.237 116.873 384.232 116.372 381.851 116.372C379.971 116.372 378.216 116.685 376.587 117.312C375.083 117.813 373.767 118.628 372.639 119.756C371.636 120.884 370.821 122.137 370.195 123.516C369.568 124.895 369.255 126.461 369.255 128.216V188H331.091V129.156C331.091 126.399 330.652 124.08 329.775 122.2C328.897 120.32 327.581 118.879 325.827 117.876C324.197 116.873 322.192 116.372 319.811 116.372C317.931 116.372 316.176 116.685 314.547 117.312C313.043 117.813 311.727 118.628 310.599 119.756C309.596 120.884 308.781 122.137 308.155 123.516C307.528 124.895 307.215 126.461 307.215 128.216V188H269.051ZM456.329 188V87.42H494.493V188H456.329ZM475.505 69.184C468.737 69.184 463.411 67.6173 459.525 64.484C455.765 61.3507 453.885 56.9013 453.885 51.136C453.885 45.872 455.828 41.548 459.713 38.164C463.599 34.78 468.863 33.088 475.505 33.088C482.273 33.088 487.537 34.6547 491.297 37.788C495.183 40.9213 497.125 45.3707 497.125 51.136C497.125 56.4 495.183 60.724 491.297 64.108C487.412 67.492 482.148 69.184 475.505 69.184ZM521.492 188V87.42H556.836L558.716 107.724L550.632 109.98C552.011 105.217 554.455 101.019 557.964 97.384C561.599 93.624 565.923 90.6787 570.936 88.548C575.949 86.4173 581.276 85.352 586.916 85.352C594.436 85.352 600.828 86.9187 606.092 90.052C611.356 93.1853 615.304 97.8227 617.936 103.964C620.693 109.98 622.072 117.312 622.072 125.96V188H583.908V129.156C583.908 126.399 583.469 124.08 582.592 122.2C581.715 120.32 580.399 118.879 578.644 117.876C576.889 116.873 574.821 116.372 572.44 116.372C570.56 116.372 568.805 116.685 567.176 117.312C565.672 117.813 564.356 118.628 563.228 119.756C562.1 120.884 561.223 122.137 560.596 123.516C559.969 124.895 559.656 126.461 559.656 128.216V188H540.668C535.905 188 531.895 188 528.636 188C525.503 188 523.121 188 521.492 188ZM714.126 188V56.4H773.346C782.37 56.4 790.391 58.3427 797.41 62.228C804.429 66.1133 809.943 71.44 813.954 78.208C817.965 84.976 819.97 92.7467 819.97 101.52C819.97 110.669 817.965 118.816 813.954 125.96C809.943 133.104 804.429 138.744 797.41 142.88C790.391 146.891 782.37 148.896 773.346 148.896H754.734V188H714.126ZM753.982 114.304H765.826C768.207 114.304 770.338 113.865 772.218 112.988C774.098 111.985 775.539 110.607 776.542 108.852C777.67 107.097 778.234 104.904 778.234 102.272C778.234 99.64 777.67 97.5093 776.542 95.88C775.539 94.2507 774.098 93.06 772.218 92.308C770.338 91.4307 768.207 90.992 765.826 90.992H753.982V114.304ZM874.65 189.692C866.253 189.692 858.795 187.499 852.278 183.112C845.761 178.6 840.622 172.459 836.862 164.688C833.102 156.792 831.222 147.768 831.222 137.616C831.222 127.339 833.039 118.315 836.674 110.544C840.434 102.648 845.573 96.5067 852.09 92.12C858.733 87.608 866.378 85.352 875.026 85.352C879.538 85.352 883.674 85.9787 887.434 87.232C891.194 88.4853 894.515 90.24 897.398 92.496C900.281 94.752 902.787 97.384 904.918 100.392C907.049 103.275 908.866 106.408 910.37 109.792L902.662 109.604V87.42H940.074V188H901.722V163.372L910.182 164.124C908.929 167.759 907.174 171.143 904.918 174.276C902.787 177.409 900.218 180.104 897.21 182.36C894.202 184.616 890.818 186.433 887.058 187.812C883.298 189.065 879.162 189.692 874.65 189.692ZM885.554 158.672C889.189 158.672 892.259 157.857 894.766 156.228C897.398 154.599 899.341 152.217 900.594 149.084C901.973 145.951 902.662 142.128 902.662 137.616C902.662 133.104 901.973 129.281 900.594 126.148C899.341 122.889 897.398 120.445 894.766 118.816C892.259 117.187 889.189 116.372 885.554 116.372C881.919 116.372 878.849 117.187 876.342 118.816C873.835 120.445 871.893 122.889 870.514 126.148C869.261 129.281 868.634 133.104 868.634 137.616C868.634 142.128 869.261 145.951 870.514 149.084C871.893 152.217 873.835 154.599 876.342 156.228C878.849 157.857 881.919 158.672 885.554 158.672ZM966.34 188V87.42H1001.68L1003.56 107.724L995.48 109.98C996.858 105.217 999.302 101.019 1002.81 97.384C1006.45 93.624 1010.77 90.6787 1015.78 88.548C1020.8 86.4173 1026.12 85.352 1031.76 85.352C1039.28 85.352 1045.68 86.9187 1050.94 90.052C1056.2 93.1853 1060.15 97.8227 1062.78 103.964C1065.54 109.98 1066.92 117.312 1066.92 125.96V188H1028.76V129.156C1028.76 126.399 1028.32 124.08 1027.44 122.2C1026.56 120.32 1025.25 118.879 1023.49 117.876C1021.74 116.873 1019.67 116.372 1017.29 116.372C1015.41 116.372 1013.65 116.685 1012.02 117.312C1010.52 117.813 1009.2 118.628 1008.08 119.756C1006.95 120.884 1006.07 122.137 1005.44 123.516C1004.82 124.895 1004.5 126.461 1004.5 128.216V188H985.516C980.753 188 976.742 188 973.484 188C970.35 188 967.969 188 966.34 188ZM1140.06 189.88C1128.4 189.88 1118.38 187.624 1109.98 183.112C1101.58 178.6 1095.13 172.459 1090.62 164.688C1086.1 156.792 1083.85 147.768 1083.85 137.616C1083.85 130.096 1085.1 123.14 1087.61 116.748C1090.11 110.356 1093.62 104.841 1098.14 100.204C1102.77 95.4413 1108.16 91.8067 1114.3 89.3C1120.57 86.668 1127.4 85.352 1134.8 85.352C1142.19 85.352 1148.9 86.668 1154.91 89.3C1161.05 91.8067 1166.32 95.4413 1170.7 100.204C1175.09 104.841 1178.41 110.356 1180.67 116.748C1183.05 123.14 1184.11 130.096 1183.86 137.616L1183.68 145.512H1104.9L1100.58 127.652H1153.41L1149.84 131.412V128.028C1149.84 125.647 1149.21 123.579 1147.96 121.824C1146.83 119.944 1145.2 118.503 1143.07 117.5C1140.94 116.497 1138.43 115.996 1135.55 115.996C1131.91 115.996 1128.84 116.748 1126.34 118.252C1123.83 119.756 1121.89 121.887 1120.51 124.644C1119.25 127.401 1118.63 130.723 1118.63 134.608C1118.63 139.12 1119.57 143.068 1121.45 146.452C1123.45 149.836 1126.34 152.468 1130.1 154.348C1133.98 156.228 1138.74 157.168 1144.38 157.168C1148.14 157.168 1151.34 156.729 1153.97 155.852C1156.73 154.849 1159.61 153.283 1162.62 151.152L1180.1 175.78C1175.47 179.415 1170.89 182.235 1166.38 184.24C1161.99 186.245 1157.61 187.687 1153.22 188.564C1148.96 189.441 1144.57 189.88 1140.06 189.88ZM1201.52 188V48.88H1239.69V188H1201.52Z" fill="url(#paint0_linear_173_78)"/>
<path opacity="0.4" d="M869.808 75.8333V51.0653H859.44V42.2333H890.832V51.0653H880.176V75.8333H869.808ZM903.276 76.3133C900.3 76.3133 897.74 75.7373 895.596 74.5853C893.452 73.4333 891.804 71.8653 890.652 69.8813C889.5 67.8653 888.924 65.5613 888.924 62.9693C888.924 61.0493 889.244 59.2733 889.884 57.6413C890.524 56.0093 891.42 54.6013 892.572 53.4173C893.756 52.2013 895.132 51.2733 896.7 50.6333C898.3 49.9613 900.044 49.6253 901.932 49.6253C903.82 49.6253 905.532 49.9613 907.068 50.6333C908.636 51.2733 909.98 52.2013 911.1 53.4173C912.22 54.6013 913.068 56.0093 913.644 57.6413C914.252 59.2733 914.524 61.0493 914.46 62.9693L914.412 64.9853H894.3L893.196 60.4253H906.684L905.772 61.3853V60.5213C905.772 59.9133 905.612 59.3853 905.292 58.9373C905.004 58.4573 904.588 58.0893 904.044 57.8333C903.5 57.5773 902.86 57.4493 902.124 57.4493C901.196 57.4493 900.412 57.6413 899.772 58.0253C899.132 58.4093 898.636 58.9533 898.284 59.6573C897.964 60.3613 897.804 61.2093 897.804 62.2013C897.804 63.3533 898.044 64.3613 898.524 65.2253C899.036 66.0893 899.772 66.7613 900.732 67.2413C901.724 67.7213 902.94 67.9613 904.38 67.9613C905.34 67.9613 906.156 67.8493 906.828 67.6253C907.532 67.3693 908.268 66.9693 909.036 66.4253L913.5 72.7133C912.316 73.6413 911.148 74.3613 909.996 74.8733C908.876 75.3853 907.756 75.7533 906.636 75.9773C905.548 76.2013 904.428 76.3133 903.276 76.3133ZM930.537 76.3133C927.945 76.3133 925.625 75.7373 923.577 74.5853C921.561 73.4333 919.961 71.8653 918.777 69.8813C917.625 67.8653 917.049 65.5613 917.049 62.9693C917.049 60.3773 917.625 58.0893 918.777 56.1053C919.961 54.0893 921.561 52.5053 923.577 51.3533C925.625 50.2013 927.945 49.6253 930.537 49.6253C932.841 49.6253 934.969 49.9773 936.921 50.6813C938.873 51.3853 940.457 52.4093 941.673 53.7533L936.393 59.9933C936.041 59.6093 935.625 59.2573 935.145 58.9373C934.665 58.6173 934.121 58.3773 933.513 58.2173C932.905 58.0253 932.201 57.9293 931.401 57.9293C930.441 57.9293 929.593 58.1373 928.857 58.5533C928.153 58.9693 927.609 59.5613 927.225 60.3293C926.841 61.0653 926.649 61.9293 926.649 62.9213C926.649 63.8813 926.825 64.7453 927.177 65.5133C927.561 66.2493 928.105 66.8413 928.809 67.2893C929.545 67.7373 930.409 67.9613 931.401 67.9613C932.201 67.9613 932.905 67.8813 933.513 67.7213C934.121 67.5613 934.665 67.3373 935.145 67.0493C935.625 66.7293 936.041 66.3613 936.393 65.9453L941.625 72.2333C940.441 73.5453 938.873 74.5533 936.921 75.2573C934.969 75.9613 932.841 76.3133 930.537 76.3133ZM945.501 75.8333V40.3133H955.005V55.3373L952.941 55.9133C953.293 54.6973 953.917 53.6253 954.813 52.6973C955.741 51.7373 956.845 50.9853 958.125 50.4413C959.405 49.8973 960.765 49.6253 962.205 49.6253C964.125 49.6253 965.757 50.0253 967.101 50.8253C968.445 51.6253 969.453 52.8093 970.125 54.3773C970.829 55.9133 971.181 57.7853 971.181 59.9933V75.8333H961.437V60.8093C961.437 60.1053 961.325 59.5133 961.101 59.0333C960.877 58.5533 960.541 58.1853 960.093 57.9293C959.645 57.6733 959.117 57.5453 958.509 57.5453C958.029 57.5453 957.581 57.6253 957.165 57.7853C956.781 57.9133 956.445 58.1213 956.157 58.4093C955.869 58.6973 955.645 59.0173 955.485 59.3693C955.325 59.7213 955.245 60.1213 955.245 60.5693V75.8333H950.397C949.181 75.8333 948.157 75.8333 947.325 75.8333C946.525 75.8333 945.917 75.8333 945.501 75.8333ZM988.559 75.8333C986.767 75.8333 985.087 75.5133 983.519 74.8733C981.951 74.2333 980.559 73.3373 979.343 72.1853C978.159 71.0333 977.215 69.7213 976.511 68.2493C975.839 66.7453 975.503 65.1453 975.503 63.4493C975.503 62.0733 975.631 60.8253 975.887 59.7053C976.143 58.5533 976.495 57.4653 976.943 56.4413C977.391 55.4173 977.919 54.3933 978.527 53.3693C979.135 52.3133 979.791 51.1933 980.495 50.0093L985.439 41.7533H994.847L995.039 42.2333L987.599 53.5613C986.863 54.6813 986.239 55.7213 985.727 56.6813C985.247 57.6093 984.783 58.5853 984.335 59.6093C983.887 60.6333 983.327 61.8813 982.655 63.3533L980.831 61.2893C980.927 60.0413 981.327 58.8733 982.031 57.7853C982.735 56.6973 983.599 55.7533 984.623 54.9533C985.679 54.1213 986.767 53.4813 987.887 53.0333C989.039 52.5853 990.111 52.3613 991.103 52.3613C993.023 52.3613 994.783 52.8733 996.383 53.8973C998.015 54.8893 999.311 56.2173 1000.27 57.8813C1001.23 59.5453 1001.71 61.3693 1001.71 63.3533C1001.71 65.7213 1001.13 67.8493 999.983 69.7373C998.831 71.6253 997.263 73.1133 995.279 74.2013C993.295 75.2893 991.055 75.8333 988.559 75.8333ZM988.751 67.6733C989.583 67.6733 990.319 67.5133 990.959 67.1933C991.599 66.8413 992.095 66.3613 992.447 65.7533C992.831 65.1133 993.023 64.3933 993.023 63.5933C993.023 62.8893 992.831 62.2333 992.447 61.6253C992.063 61.0173 991.551 60.5213 990.911 60.1373C990.271 59.7533 989.551 59.5613 988.751 59.5613C987.919 59.5613 987.183 59.7533 986.543 60.1373C985.903 60.4893 985.391 60.9693 985.007 61.5773C984.655 62.1853 984.479 62.8573 984.479 63.5933C984.479 64.3933 984.655 65.0973 985.007 65.7053C985.391 66.3133 985.903 66.7933 986.543 67.1453C987.183 67.4973 987.919 67.6733 988.751 67.6733ZM1018.26 76.3133C1015.73 76.3133 1013.49 76.0413 1011.54 75.4973C1009.62 74.9213 1007.92 74.1213 1006.45 73.0973C1005.01 72.0733 1003.71 70.8733 1002.56 69.4973L1008.56 62.7773C1010.16 64.8253 1011.82 66.1853 1013.55 66.8573C1015.31 67.4973 1016.96 67.8173 1018.5 67.8173C1019.1 67.8173 1019.65 67.7693 1020.13 67.6733C1020.61 67.5453 1020.98 67.3533 1021.23 67.0973C1021.49 66.8413 1021.62 66.4893 1021.62 66.0413C1021.62 65.6253 1021.47 65.2733 1021.18 64.9853C1020.93 64.6973 1020.58 64.4573 1020.13 64.2653C1019.68 64.0413 1019.18 63.8653 1018.64 63.7373C1018.13 63.5773 1017.62 63.4493 1017.1 63.3533C1016.62 63.2573 1016.19 63.1613 1015.81 63.0653C1013.89 62.6173 1012.21 62.0733 1010.77 61.4333C1009.33 60.7933 1008.13 60.0253 1007.17 59.1293C1006.21 58.2333 1005.49 57.2093 1005.01 56.0573C1004.56 54.9053 1004.34 53.6093 1004.34 52.1693C1004.34 50.5373 1004.7 49.0493 1005.44 47.7053C1006.21 46.3613 1007.22 45.2093 1008.46 44.2493C1009.74 43.2893 1011.18 42.5533 1012.78 42.0413C1014.42 41.5293 1016.1 41.2733 1017.82 41.2733C1020.35 41.2733 1022.46 41.5133 1024.16 41.9933C1025.86 42.4413 1027.28 43.0973 1028.43 43.9613C1029.58 44.8253 1030.58 45.8333 1031.41 46.9853L1025.36 52.7933C1024.66 52.1213 1023.92 51.5773 1023.15 51.1613C1022.38 50.7133 1021.58 50.3933 1020.75 50.2013C1019.95 49.9773 1019.15 49.8653 1018.35 49.8653C1017.62 49.8653 1016.99 49.9293 1016.48 50.0573C1015.97 50.1533 1015.57 50.3293 1015.28 50.5853C1014.99 50.8093 1014.85 51.1293 1014.85 51.5453C1014.85 51.9613 1015.02 52.3133 1015.38 52.6013C1015.76 52.8573 1016.22 53.0813 1016.77 53.2733C1017.34 53.4653 1017.9 53.6253 1018.45 53.7533C1019.02 53.8493 1019.5 53.9293 1019.89 53.9933C1021.65 54.3133 1023.26 54.7613 1024.74 55.3373C1026.21 55.8813 1027.49 56.5853 1028.58 57.4493C1029.7 58.2813 1030.54 59.3373 1031.12 60.6173C1031.73 61.8653 1032.03 63.3533 1032.03 65.0813C1032.03 67.5453 1031.41 69.6093 1030.16 71.2733C1028.94 72.9373 1027.3 74.2013 1025.22 75.0653C1023.14 75.8973 1020.82 76.3133 1018.26 76.3133ZM1049.2 76.3133C1046.22 76.3133 1043.66 75.7373 1041.52 74.5853C1039.37 73.4333 1037.73 71.8653 1036.57 69.8813C1035.42 67.8653 1034.85 65.5613 1034.85 62.9693C1034.85 61.0493 1035.17 59.2733 1035.81 57.6413C1036.45 56.0093 1037.34 54.6013 1038.49 53.4173C1039.68 52.2013 1041.05 51.2733 1042.62 50.6333C1044.22 49.9613 1045.97 49.6253 1047.85 49.6253C1049.74 49.6253 1051.45 49.9613 1052.99 50.6333C1054.56 51.2733 1055.9 52.2013 1057.02 53.4173C1058.14 54.6013 1058.99 56.0093 1059.57 57.6413C1060.17 59.2733 1060.45 61.0493 1060.38 62.9693L1060.33 64.9853H1040.22L1039.12 60.4253H1052.61L1051.69 61.3853V60.5213C1051.69 59.9133 1051.53 59.3853 1051.21 58.9373C1050.93 58.4573 1050.51 58.0893 1049.97 57.8333C1049.42 57.5773 1048.78 57.4493 1048.05 57.4493C1047.12 57.4493 1046.33 57.6413 1045.69 58.0253C1045.05 58.4093 1044.56 58.9533 1044.21 59.6573C1043.89 60.3613 1043.73 61.2093 1043.73 62.2013C1043.73 63.3533 1043.97 64.3613 1044.45 65.2253C1044.96 66.0893 1045.69 66.7613 1046.65 67.2413C1047.65 67.7213 1048.86 67.9613 1050.3 67.9613C1051.26 67.9613 1052.08 67.8493 1052.75 67.6253C1053.45 67.3693 1054.19 66.9693 1054.96 66.4253L1059.42 72.7133C1058.24 73.6413 1057.07 74.3613 1055.92 74.8733C1054.8 75.3853 1053.68 75.7533 1052.56 75.9773C1051.47 76.2013 1050.35 76.3133 1049.2 76.3133ZM1064.89 75.8333V50.1533H1073.92L1074.4 55.3373L1072.33 55.9133C1072.68 54.6973 1073.31 53.6253 1074.2 52.6973C1075.13 51.7373 1076.24 50.9853 1077.52 50.4413C1078.8 49.8973 1080.16 49.6253 1081.6 49.6253C1083.52 49.6253 1085.15 50.0253 1086.49 50.8253C1087.84 51.6253 1088.84 52.8093 1089.52 54.3773C1090.22 55.9133 1090.57 57.7853 1090.57 59.9933V75.8333H1080.83V60.8093C1080.83 60.1053 1080.72 59.5133 1080.49 59.0333C1080.27 58.5533 1079.93 58.1853 1079.48 57.9293C1079.04 57.6733 1078.51 57.5453 1077.9 57.5453C1077.42 57.5453 1076.97 57.6253 1076.56 57.7853C1076.17 57.9133 1075.84 58.1213 1075.55 58.4093C1075.26 58.6973 1075.04 59.0173 1074.88 59.3693C1074.72 59.7213 1074.64 60.1213 1074.64 60.5693V75.8333H1069.79C1068.57 75.8333 1067.55 75.8333 1066.72 75.8333C1065.92 75.8333 1065.31 75.8333 1064.89 75.8333ZM1105.6 76.3133C1102.81 76.3133 1100.38 75.8973 1098.3 75.0653C1096.25 74.2013 1094.65 73.1293 1093.5 71.8493L1099.17 67.0013C1100.19 67.8973 1101.36 68.5693 1102.67 69.0173C1104.01 69.4333 1105.13 69.6413 1106.03 69.6413C1106.35 69.6413 1106.62 69.6253 1106.85 69.5933C1107.1 69.5293 1107.29 69.4493 1107.42 69.3533C1107.58 69.2253 1107.69 69.0973 1107.76 68.9693C1107.85 68.8413 1107.9 68.6813 1107.9 68.4893C1107.9 68.0093 1107.65 67.6573 1107.13 67.4333C1106.85 67.3053 1106.37 67.1453 1105.69 66.9533C1105.05 66.7613 1104.21 66.5373 1103.15 66.2813C1101.9 65.9613 1100.75 65.5613 1099.69 65.0813C1098.67 64.6013 1097.79 64.0413 1097.05 63.4013C1096.29 62.6973 1095.68 61.8973 1095.23 61.0013C1094.81 60.1053 1094.61 59.0973 1094.61 57.9773C1094.61 56.6653 1094.91 55.4973 1095.52 54.4733C1096.13 53.4493 1096.96 52.5853 1098.01 51.8813C1099.07 51.1453 1100.25 50.5853 1101.57 50.2013C1102.88 49.8173 1104.22 49.6253 1105.6 49.6253C1107.17 49.6253 1108.62 49.7853 1109.97 50.1053C1111.34 50.3933 1112.62 50.8253 1113.81 51.4013C1115.02 51.9453 1116.13 52.6013 1117.12 53.3693L1112.17 58.8893C1111.63 58.4413 1110.99 58.0093 1110.25 57.5933C1109.55 57.1773 1108.8 56.8413 1108 56.5853C1107.23 56.2973 1106.51 56.1533 1105.84 56.1533C1105.49 56.1533 1105.18 56.1853 1104.93 56.2493C1104.7 56.2813 1104.51 56.3613 1104.35 56.4893C1104.19 56.5853 1104.06 56.7133 1103.97 56.8733C1103.9 57.0013 1103.87 57.1613 1103.87 57.3533C1103.87 57.6093 1103.95 57.8493 1104.11 58.0733C1104.27 58.2973 1104.53 58.4893 1104.88 58.6493C1105.17 58.7773 1105.65 58.9533 1106.32 59.1773C1107.02 59.4013 1108.05 59.7053 1109.39 60.0893C1110.83 60.5053 1112.09 60.9853 1113.18 61.5293C1114.3 62.0733 1115.2 62.7133 1115.87 63.4493C1116.32 63.9613 1116.67 64.5373 1116.93 65.1773C1117.18 65.8173 1117.31 66.5053 1117.31 67.2413C1117.31 69.0013 1116.8 70.5693 1115.77 71.9453C1114.78 73.2893 1113.41 74.3613 1111.65 75.1613C1109.89 75.9293 1107.87 76.3133 1105.6 76.3133ZM1133.57 76.3133C1130.6 76.3133 1128.04 75.7373 1125.89 74.5853C1123.75 73.4333 1122.1 71.8653 1120.95 69.8813C1119.8 67.8653 1119.22 65.5613 1119.22 62.9693C1119.22 61.0493 1119.54 59.2733 1120.18 57.6413C1120.82 56.0093 1121.72 54.6013 1122.87 53.4173C1124.05 52.2013 1125.43 51.2733 1127 50.6333C1128.6 49.9613 1130.34 49.6253 1132.23 49.6253C1134.12 49.6253 1135.83 49.9613 1137.37 50.6333C1138.93 51.2733 1140.28 52.2013 1141.4 53.4173C1142.52 54.6013 1143.37 56.0093 1143.94 57.6413C1144.55 59.2733 1144.82 61.0493 1144.76 62.9693L1144.71 64.9853H1124.6L1123.49 60.4253H1136.98L1136.07 61.3853V60.5213C1136.07 59.9133 1135.91 59.3853 1135.59 58.9373C1135.3 58.4573 1134.89 58.0893 1134.34 57.8333C1133.8 57.5773 1133.16 57.4493 1132.42 57.4493C1131.49 57.4493 1130.71 57.6413 1130.07 58.0253C1129.43 58.4093 1128.93 58.9533 1128.58 59.6573C1128.26 60.3613 1128.1 61.2093 1128.1 62.2013C1128.1 63.3533 1128.34 64.3613 1128.82 65.2253C1129.33 66.0893 1130.07 66.7613 1131.03 67.2413C1132.02 67.7213 1133.24 67.9613 1134.68 67.9613C1135.64 67.9613 1136.45 67.8493 1137.13 67.6253C1137.83 67.3693 1138.57 66.9693 1139.33 66.4253L1143.8 72.7133C1142.61 73.6413 1141.45 74.3613 1140.29 74.8733C1139.17 75.3853 1138.05 75.7533 1136.93 75.9773C1135.85 76.2013 1134.73 76.3133 1133.57 76.3133Z" fill="#257FFF"/>
<defs>
<linearGradient id="paint0_linear_173_78" x1="4" y1="83.5" x2="1255" y2="83.5" gradientUnits="userSpaceOnUse">
<stop stop-color="#5A5A5A"/>
<stop offset="1" stop-color="#FF9D00"/>
</linearGradient>
</defs>
</svg>
